# Created by FreeCAD <https://www.freecad.org>
v 2049.000000 5029.000000 3850.000000
v 1250.000000 5029.000000 3850.000000
v 1250.000000 5029.000000 4050.000000
v 2049.000000 5029.000000 4050.000000
v 2049.000000 4029.000000 3850.000000
v 2049.000000 4029.000000 4050.000000
v 6949.000000 4029.000000 4050.000000
v 6949.000000 4029.000000 3850.000000
v 6949.000000 -5029.000000 3850.000000
v 6949.000000 -5029.000000 4050.000000
v -3349.000000 -5029.000000 4050.000000
v -3349.000000 -5029.000000 3850.000000
v -3349.000000 -529.000000 3850.000000
v -3349.000000 -529.000000 4050.000000
v -1049.000000 4029.000000 3850.000000
v -6949.000000 4029.000000 3850.000000
v -6949.000000 4029.000000 4050.000000
v -1049.000000 4029.000000 4050.000000
v -6949.000000 -529.000000 3850.000000
v -6949.000000 -529.000000 4050.000000
v -1049.000000 5029.000000 3850.000000
v -1049.000000 5029.000000 4050.000000
v -250.000000 5029.000000 3850.000000
v -250.000000 5029.000000 4050.000000
v -250.000000 5039.000000 3850.000000
v -250.000000 5039.000000 4050.000000
v 0.000000 5039.000000 4050.000000
v 0.000000 5039.000000 3850.000000
v 1250.000000 5039.000000 4050.000000
v 1250.000000 5039.000000 3850.000000
v 1000.000000 5039.000000 3850.000000
v 1000.000000 5039.000000 4050.000000
v 1659.000000 1381.000000 3850.000000
v -659.000000 1381.000000 3850.000000
v 1659.000000 4639.000000 3850.000000
v 1000.000000 4639.000000 3850.000000
v 0.000000 4639.000000 3850.000000
v -659.000000 4639.000000 3850.000000
v 0.000000 4639.000000 4050.000000
v -659.000000 4639.000000 4050.000000
v -659.000000 1381.000000 4050.000000
v -949.000000 1381.000000 4050.000000
v -949.000000 1381.000000 4060.000000
v 1659.000000 1381.000000 4050.000000
v 1659.000000 1381.000000 4060.000000
v 1659.000000 4639.000000 4050.000000
v 1000.000000 4639.000000 4050.000000
v -949.000000 -89.000000 4050.000000
v -949.000000 -89.000000 4060.000000
v 3609.000000 -89.000000 4050.000000
v 3609.000000 -89.000000 4060.000000
v 3609.000000 1311.000000 4050.000000
v 3609.000000 1311.000000 4060.000000
v 1659.000000 1311.000000 4050.000000
v 1659.000000 1311.000000 4060.000000
v -2959.000000 -239.000000 4050.000000
v -4859.000000 -89.000000 4050.000000
v 1641.000000 -4639.000000 4050.000000
v -2959.000000 -4639.000000 4050.000000
v 1921.000000 -4639.000000 4050.000000
v -4859.000000 3639.000000 4050.000000
v -1049.000000 -89.000000 4050.000000
v 1921.000000 -239.000000 4050.000000
v 1641.000000 -239.000000 4050.000000
v 6559.000000 -4639.000000 4050.000000
v -1049.000000 3639.000000 4050.000000
v 2049.000000 1461.000000 4050.000000
v 3609.000000 1461.000000 4050.000000
v 3759.000000 1311.000000 4050.000000
v 3759.000000 -89.000000 4050.000000
v 3609.000000 1911.000000 4050.000000
v 2049.000000 3639.000000 4050.000000
v 6559.000000 -239.000000 4050.000000
v 6559.000000 -89.000000 4050.000000
v 6559.000000 1911.000000 4050.000000
v 6559.000000 1311.000000 4050.000000
v 6559.000000 3639.000000 4050.000000
v 1921.000000 -4639.000000 4060.000000
v 1921.000000 -239.000000 4060.000000
v 6559.000000 -4639.000000 4060.000000
v 6559.000000 -239.000000 4060.000000
v -2959.000000 -4639.000000 4060.000000
v -2959.000000 -239.000000 4060.000000
v 1641.000000 -4639.000000 4060.000000
v 1641.000000 -239.000000 4060.000000
v -1049.000000 3639.000000 4060.000000
v -4859.000000 3639.000000 4060.000000
v -4859.000000 -89.000000 4060.000000
v -1049.000000 -89.000000 4060.000000
v 2049.000000 1461.000000 4060.000000
v 3609.000000 1461.000000 4060.000000
v 3609.000000 1911.000000 4060.000000
v 6559.000000 1911.000000 4060.000000
v 6559.000000 3639.000000 4060.000000
v 2049.000000 3639.000000 4060.000000
v 3759.000000 1311.000000 4060.000000
v 3759.000000 -89.000000 4060.000000
v 6559.000000 -89.000000 4060.000000
v 6559.000000 1311.000000 4060.000000
vn 0.000000 1.000000 0.000000
vn 0.000000 1.000000 -0.000000
vn 1.000000 0.000000 0.000000
vn 1.000000 0.000000 0.000000
vn 0.000000 1.000000 0.000000
vn 0.000000 1.000000 -0.000000
vn 1.000000 0.000000 0.000000
vn 1.000000 -0.000000 0.000000
vn -0.000000 -1.000000 0.000000
vn 0.000000 -1.000000 0.000000
vn -1.000000 0.000000 0.000000
vn -1.000000 0.000000 0.000000
vn 0.000000 1.000000 0.000000
vn 0.000000 1.000000 -0.000000
vn -1.000000 -0.000000 0.000000
vn -1.000000 0.000000 0.000000
vn -1.000000 0.000000 0.000000
vn -1.000000 0.000000 0.000000
vn 0.000000 -1.000000 0.000000
vn 0.000000 -1.000000 0.000000
vn 0.000000 1.000000 0.000000
vn 0.000000 1.000000 -0.000000
vn -1.000000 0.000000 0.000000
vn -1.000000 0.000000 0.000000
vn 0.000000 1.000000 0.000000
vn 0.000000 1.000000 0.000000
vn 1.000000 -0.000000 0.000000
vn 1.000000 0.000000 0.000000
vn 0.000000 1.000000 0.000000
vn 0.000000 1.000000 0.000000
vn 0.000000 0.000000 -1.000000
vn 0.000000 -0.000000 -1.000000
vn 0.000000 -0.000000 -1.000000
vn 0.000000 -0.000000 -1.000000
vn 0.000000 0.000000 -1.000000
vn 0.000000 -0.000000 -1.000000
vn 0.000000 -0.000000 -1.000000
vn 0.000000 0.000000 -1.000000
vn 0.000000 0.000000 -1.000000
vn 0.000000 -0.000000 -1.000000
vn 0.000000 0.000000 -1.000000
vn 0.000000 0.000000 -1.000000
vn 0.000000 0.000000 -1.000000
vn 0.000000 0.000000 -1.000000
vn 0.000000 0.000000 -1.000000
vn 0.000000 0.000000 -1.000000
vn 0.000000 0.000000 -1.000000
vn 0.000000 -0.000000 -1.000000
vn 0.000000 0.000000 -1.000000
vn 0.000000 0.000000 -1.000000
vn -0.000000 -1.000000 -0.000000
vn 0.000000 -1.000000 0.000000
vn 1.000000 0.000000 0.000000
vn 1.000000 0.000000 0.000000
vn 0.000000 1.000000 0.000000
vn 0.000000 1.000000 0.000000
vn 0.000000 1.000000 0.000000
vn 0.000000 1.000000 0.000000
vn -0.000000 1.000000 0.000000
vn -1.000000 0.000000 0.000000
vn -1.000000 0.000000 0.000000
vn -0.000000 -1.000000 -0.000000
vn 0.000000 -1.000000 0.000000
vn -1.000000 0.000000 0.000000
vn -1.000000 0.000000 0.000000
vn 0.000000 -1.000000 0.000000
vn 0.000000 -1.000000 0.000000
vn 1.000000 0.000000 0.000000
vn 1.000000 0.000000 0.000000
vn 0.000000 1.000000 0.000000
vn 0.000000 1.000000 -0.000000
vn 1.000000 0.000000 0.000000
vn 1.000000 0.000000 0.000000
vn 0.000000 0.000000 1.000000
vn 0.000000 0.000000 1.000000
vn 0.000000 0.000000 1.000000
vn 0.000000 0.000000 1.000000
vn 0.000000 0.000000 1.000000
vn 0.000000 0.000000 1.000000
vn 0.000000 0.000000 1.000000
vn 0.000000 0.000000 1.000000
vn 0.000000 0.000000 1.000000
vn 0.000000 0.000000 1.000000
vn 0.000000 0.000000 1.000000
vn 0.000000 0.000000 1.000000
vn 0.000000 0.000000 1.000000
vn 0.000000 0.000000 1.000000
vn 0.000000 0.000000 1.000000
vn 0.000000 0.000000 1.000000
vn 0.000000 0.000000 1.000000
vn 0.000000 0.000000 1.000000
vn 0.000000 0.000000 1.000000
vn 0.000000 0.000000 1.000000
vn 0.000000 0.000000 1.000000
vn 0.000000 0.000000 1.000000
vn 0.000000 0.000000 1.000000
vn 0.000000 0.000000 1.000000
vn 0.000000 0.000000 1.000000
vn 0.000000 0.000000 1.000000
vn 0.000000 0.000000 1.000000
vn 0.000000 0.000000 1.000000
vn 0.000000 0.000000 1.000000
vn 0.000000 0.000000 1.000000
vn 0.000000 0.000000 1.000000
vn 0.000000 0.000000 1.000000
vn 0.000000 0.000000 1.000000
vn 0.000000 0.000000 1.000000
vn 0.000000 0.000000 1.000000
vn 0.000000 0.000000 1.000000
vn 0.000000 0.000000 1.000000
vn 0.000000 0.000000 1.000000
vn 0.000000 0.000000 1.000000
vn 0.000000 0.000000 1.000000
vn 0.000000 0.000000 1.000000
vn 0.000000 -0.000000 1.000000
vn 0.000000 0.000000 1.000000
vn 0.000000 0.000000 1.000000
vn 0.000000 0.000000 1.000000
vn 0.000000 0.000000 1.000000
vn 0.000000 0.000000 1.000000
vn 0.000000 0.000000 1.000000
vn 0.000000 0.000000 1.000000
vn -0.000000 0.000000 1.000000
vn 0.000000 0.000000 1.000000
vn 0.000000 0.000000 1.000000
vn 0.000000 -0.000000 1.000000
vn 0.000000 0.000000 1.000000
vn 0.000000 0.000000 1.000000
vn 0.000000 -0.000000 1.000000
vn 0.000000 0.000000 1.000000
vn 0.000000 0.000000 1.000000
vn 0.000000 0.000000 1.000000
vn 0.000000 0.000000 1.000000
vn 0.000000 0.000000 1.000000
vn -1.000000 0.000000 0.000000
vn -1.000000 0.000000 0.000000
vn 0.000000 -1.000000 0.000000
vn 0.000000 -1.000000 0.000000
vn 1.000000 0.000000 0.000000
vn 1.000000 0.000000 0.000000
vn 0.000000 1.000000 -0.000000
vn 0.000000 1.000000 0.000000
vn 0.000000 0.000000 1.000000
vn 0.000000 0.000000 1.000000
vn -1.000000 0.000000 0.000000
vn -1.000000 0.000000 0.000000
vn 0.000000 -1.000000 0.000000
vn 0.000000 -1.000000 0.000000
vn 1.000000 0.000000 0.000000
vn 1.000000 0.000000 0.000000
vn 0.000000 1.000000 -0.000000
vn 0.000000 1.000000 0.000000
vn 0.000000 0.000000 1.000000
vn 0.000000 0.000000 1.000000
vn 0.000000 1.000000 -0.000000
vn 0.000000 1.000000 0.000000
vn -1.000000 0.000000 0.000000
vn -1.000000 -0.000000 0.000000
vn 0.000000 -1.000000 0.000000
vn 0.000000 -1.000000 0.000000
vn 1.000000 0.000000 0.000000
vn 1.000000 -0.000000 0.000000
vn 0.000000 0.000000 1.000000
vn 0.000000 0.000000 1.000000
vn 0.000000 -1.000000 0.000000
vn 0.000000 -1.000000 0.000000
vn 1.000000 0.000000 0.000000
vn 1.000000 -0.000000 0.000000
vn 0.000000 -1.000000 0.000000
vn 0.000000 -1.000000 0.000000
vn 1.000000 0.000000 0.000000
vn 1.000000 -0.000000 0.000000
vn 0.000000 1.000000 -0.000000
vn 0.000000 1.000000 0.000000
vn -1.000000 0.000000 0.000000
vn -1.000000 -0.000000 0.000000
vn 0.000000 0.000000 1.000000
vn 0.000000 0.000000 1.000000
vn 0.000000 0.000000 1.000000
vn 0.000000 0.000000 1.000000
vn -1.000000 0.000000 0.000000
vn -1.000000 -0.000000 0.000000
vn 0.000000 -1.000000 0.000000
vn 0.000000 -1.000000 0.000000
vn 1.000000 0.000000 0.000000
vn 1.000000 -0.000000 0.000000
vn 0.000000 1.000000 -0.000000
vn 0.000000 1.000000 0.000000
vn 0.000000 0.000000 1.000000
vn 0.000000 0.000000 1.000000
vn 1.000000 0.000000 0.000000
vn 1.000000 -0.000000 0.000000
vn -1.000000 0.000000 0.000000
vn -1.000000 0.000000 0.000000
f 1//1 2//1 3//1
f 1//2 3//2 4//2
f 5//3 1//3 4//3
f 5//4 4//4 6//4
f 7//5 5//5 6//5
f 8//6 5//6 7//6
f 9//7 8//7 7//7
f 10//8 9//8 7//8
f 10//9 11//9 12//9
f 9//10 10//10 12//10
f 13//11 12//11 11//11
f 13//12 11//12 14//12
f 15//13 16//13 17//13
f 15//14 17//14 18//14
f 17//15 19//15 20//15
f 16//16 19//16 17//16
f 21//17 15//17 18//17
f 21//18 18//18 22//18
f 19//19 13//19 14//19
f 19//20 14//20 20//20
f 23//21 21//21 22//21
f 23//22 22//22 24//22
f 23//23 24//23 25//23
f 25//24 24//24 26//24
f 27//25 25//25 26//25
f 27//26 28//26 25//26
f 3//27 2//27 29//27
f 29//28 2//28 30//28
f 29//29 30//29 31//29
f 29//30 31//30 32//30
f 33//31 8//31 9//31
f 33//32 9//32 12//32
f 5//33 8//33 33//33
f 34//34 33//34 12//34
f 13//35 34//35 12//35
f 1//36 5//36 35//36
f 2//37 35//37 36//37
f 31//38 30//38 2//38
f 31//39 2//39 36//39
f 15//40 34//40 13//40
f 23//41 28//41 37//41
f 25//42 28//42 23//42
f 38//43 23//43 37//43
f 21//44 38//44 15//44
f 16//45 13//45 19//45
f 16//46 15//46 13//46
f 21//47 23//47 38//47
f 38//48 34//48 15//48
f 33//49 35//49 5//49
f 2//50 1//50 35//50
f 39//51 40//51 37//51
f 37//52 40//52 38//52
f 40//53 41//53 38//53
f 38//54 41//54 34//54
f 41//55 42//55 43//55
f 44//56 33//56 34//56
f 44//57 34//57 41//57
f 45//58 44//58 41//58
f 43//59 45//59 41//59
f 44//60 46//60 33//60
f 33//61 46//61 35//61
f 46//62 47//62 35//62
f 35//63 47//63 36//63
f 42//64 48//64 49//64
f 42//65 49//65 43//65
f 48//66 50//66 51//66
f 48//67 51//67 49//67
f 50//68 52//68 53//68
f 50//69 53//69 51//69
f 53//70 54//70 55//70
f 52//71 54//71 53//71
f 54//72 44//72 45//72
f 54//73 45//73 55//73
f 55//74 43//74 49//74
f 45//75 43//75 55//75
f 51//76 55//76 49//76
f 53//77 55//77 51//77
f 56//78 57//78 14//78
f 58//79 59//79 11//79
f 17//80 20//80 57//80
f 60//81 58//81 11//81
f 61//82 17//82 57//82
f 42//83 62//83 48//83
f 63//84 64//84 58//84
f 63//85 58//85 60//85
f 10//86 60//86 11//86
f 65//87 60//87 10//87
f 66//88 42//88 41//88
f 18//89 61//89 66//89
f 67//90 44//90 54//90
f 22//91 18//91 40//91
f 24//92 40//92 39//92
f 27//93 24//93 39//93
f 27//94 26//94 24//94
f 68//95 67//95 52//95
f 69//96 50//96 70//96
f 69//97 68//97 52//97
f 69//98 52//98 50//98
f 71//99 68//99 69//99
f 72//100 44//100 67//100
f 3//101 32//101 47//101
f 29//102 32//102 3//102
f 46//103 3//103 47//103
f 73//104 65//104 10//104
f 74//105 70//105 73//105
f 4//106 46//106 6//106
f 75//107 71//107 69//107
f 75//108 69//108 76//108
f 7//109 75//109 76//109
f 7//110 77//110 75//110
f 7//111 76//111 74//111
f 18//112 17//112 61//112
f 20//113 14//113 57//113
f 14//114 11//114 59//114
f 10//115 7//115 74//115
f 10//116 74//116 73//116
f 7//117 6//117 77//117
f 4//118 3//118 46//118
f 46//119 44//119 72//119
f 46//120 72//120 6//120
f 54//121 52//121 67//121
f 50//122 48//122 64//122
f 50//123 64//123 70//123
f 70//124 64//124 63//124
f 70//125 63//125 73//125
f 41//126 40//126 18//126
f 41//127 18//127 66//127
f 24//128 22//128 40//128
f 59//129 56//129 14//129
f 56//130 64//130 48//130
f 56//131 48//131 62//131
f 66//132 62//132 42//132
f 62//133 57//133 56//133
f 72//134 77//134 6//134
f 63//135 78//135 79//135
f 63//136 60//136 78//136
f 60//137 65//137 78//137
f 78//138 65//138 80//138
f 65//139 81//139 80//139
f 65//140 73//140 81//140
f 73//141 63//141 81//141
f 81//142 63//142 79//142
f 81//143 79//143 78//143
f 81//144 78//144 80//144
f 56//145 82//145 83//145
f 56//146 59//146 82//146
f 59//147 84//147 82//147
f 59//148 58//148 84//148
f 58//149 85//149 84//149
f 58//150 64//150 85//150
f 64//151 83//151 85//151
f 64//152 56//152 83//152
f 85//153 83//153 82//153
f 85//154 82//154 84//154
f 66//155 61//155 86//155
f 86//156 61//156 87//156
f 61//157 57//157 87//157
f 87//158 57//158 88//158
f 57//159 62//159 88//159
f 88//160 62//160 89//160
f 62//161 66//161 89//161
f 89//162 66//162 86//162
f 86//163 87//163 88//163
f 86//164 88//164 89//164
f 67//165 68//165 90//165
f 90//166 68//166 91//166
f 68//167 71//167 91//167
f 91//168 71//168 92//168
f 71//169 75//169 92//169
f 92//170 75//170 93//170
f 75//171 77//171 93//171
f 93//172 77//172 94//172
f 77//173 72//173 94//173
f 94//174 72//174 95//174
f 72//175 67//175 95//175
f 95//176 67//176 90//176
f 92//177 90//177 91//177
f 95//178 90//178 92//178
f 94//179 92//179 93//179
f 94//180 95//180 92//180
f 69//181 70//181 96//181
f 96//182 70//182 97//182
f 70//183 74//183 97//183
f 97//184 74//184 98//184
f 74//185 76//185 98//185
f 98//186 76//186 99//186
f 76//187 69//187 99//187
f 99//188 69//188 96//188
f 98//189 96//189 97//189
f 99//190 96//190 98//190
f 39//191 37//191 28//191
f 39//192 28//192 27//192
f 36//193 47//193 32//193
f 36//194 32//194 31//194
