# Created by FreeCAD <https://www.freecad.org>
v 2049.000000 4029.000000 670.000000
v 3930.409180 4029.000000 670.000000
v 3930.409180 4029.000000 680.000000
v 2049.000000 4029.000000 680.000000
v 2049.000000 4285.152344 670.000000
v 2049.000000 4285.152344 680.000000
v 3930.409180 4285.152344 670.000000
v 3930.409180 4285.152344 680.000000
v 3930.409180 4285.152344 502.500000
v 3930.409180 4541.304688 502.500000
v 3930.409180 4541.304688 512.500000
v 3930.409180 4285.152344 512.500000
v 2049.000000 4285.152344 502.500000
v 2049.000000 4285.152344 512.500000
v 2049.000000 4541.304688 502.500000
v 2049.000000 4541.304688 512.500000
v 3930.409180 4541.304688 335.000000
v 3930.409180 4797.456543 335.000000
v 3930.409180 4797.456543 345.000000
v 3930.409180 4541.304688 345.000000
v 2049.000000 4541.304688 335.000000
v 2049.000000 4541.304688 345.000000
v 2049.000000 4797.456543 335.000000
v 2049.000000 4797.456543 345.000000
v 3930.409180 4797.456543 167.500000
v 3930.409180 5053.608887 167.500000
v 3930.409180 5053.608887 177.500000
v 3930.409180 4797.456543 177.500000
v 2049.000000 4797.456543 167.500000
v 2049.000000 4797.456543 177.500000
v 2049.000000 5053.608887 167.500000
v 2049.000000 5029.000000 177.500000
v 2049.000000 5053.608887 177.500000
v 2049.000000 5029.000000 167.500000
vn 0.000000 -1.000000 0.000000
vn 0.000000 -1.000000 0.000000
vn -1.000000 0.000000 0.000000
vn -1.000000 0.000000 0.000000
vn 0.000000 1.000000 -0.000000
vn 0.000000 1.000000 0.000000
vn 1.000000 0.000000 0.000000
vn 1.000000 -0.000000 0.000000
vn 0.000000 0.000000 -1.000000
vn 0.000000 0.000000 -1.000000
vn 0.000000 0.000000 1.000000
vn 0.000000 0.000000 1.000000
vn 1.000000 0.000000 0.000000
vn 1.000000 0.000000 0.000000
vn 0.000000 -1.000000 0.000000
vn 0.000000 -1.000000 0.000000
vn -1.000000 0.000000 0.000000
vn -1.000000 -0.000000 0.000000
vn 0.000000 1.000000 -0.000000
vn 0.000000 1.000000 0.000000
vn 0.000000 0.000000 -1.000000
vn 0.000000 -0.000000 -1.000000
vn 0.000000 0.000000 1.000000
vn 0.000000 -0.000000 1.000000
vn 1.000000 0.000000 0.000000
vn 1.000000 0.000000 0.000000
vn 0.000000 -1.000000 0.000000
vn 0.000000 -1.000000 0.000000
vn -1.000000 0.000000 0.000000
vn -1.000000 -0.000000 0.000000
vn 0.000000 1.000000 -0.000000
vn 0.000000 1.000000 0.000000
vn -0.000000 -0.000000 -1.000000
vn 0.000000 0.000000 -1.000000
vn 0.000000 -0.000000 1.000000
vn 0.000000 0.000000 1.000000
vn 1.000000 0.000000 0.000000
vn 1.000000 0.000000 0.000000
vn 0.000000 -1.000000 0.000000
vn 0.000000 -1.000000 0.000000
vn -1.000000 0.000000 0.000000
vn -1.000000 0.000000 0.000000
vn -1.000000 0.000000 0.000000
vn -1.000000 -0.000000 0.000000
vn 0.000000 1.000000 -0.000000
vn 0.000000 1.000000 0.000000
vn 0.000000 0.000000 -1.000000
vn 0.000000 0.000000 -1.000000
vn 0.000000 -0.000000 -1.000000
vn 0.000000 0.000000 1.000000
vn 0.000000 0.000000 1.000000
vn 0.000000 -0.000000 1.000000
f 1//1 2//1 3//1
f 1//2 3//2 4//2
f 5//3 4//3 6//3
f 5//4 1//4 4//4
f 7//5 5//5 8//5
f 8//6 5//6 6//6
f 2//7 7//7 3//7
f 3//8 7//8 8//8
f 5//9 2//9 1//9
f 5//10 7//10 2//10
f 3//11 6//11 4//11
f 8//12 6//12 3//12
f 9//13 10//13 11//13
f 9//14 11//14 12//14
f 13//15 9//15 12//15
f 13//16 12//16 14//16
f 15//17 13//17 16//17
f 16//18 13//18 14//18
f 10//19 15//19 11//19
f 11//20 15//20 16//20
f 15//21 10//21 13//21
f 10//22 9//22 13//22
f 11//23 16//23 14//23
f 12//24 11//24 14//24
f 17//25 18//25 19//25
f 17//26 19//26 20//26
f 21//27 17//27 20//27
f 21//28 20//28 22//28
f 23//29 21//29 24//29
f 24//30 21//30 22//30
f 18//31 23//31 19//31
f 19//32 23//32 24//32
f 18//33 17//33 23//33
f 23//34 17//34 21//34
f 20//35 19//35 24//35
f 20//36 24//36 22//36
f 25//37 26//37 27//37
f 25//38 27//38 28//38
f 29//39 25//39 28//39
f 29//40 28//40 30//40
f 31//41 32//41 33//41
f 31//42 34//42 32//42
f 34//43 29//43 32//43
f 32//44 29//44 30//44
f 26//45 31//45 27//45
f 27//46 31//46 33//46
f 31//47 26//47 34//47
f 34//48 25//48 29//48
f 26//49 25//49 34//49
f 27//50 33//50 32//50
f 28//51 32//51 30//51
f 28//52 27//52 32//52
