# Created by FreeCAD <https://www.freecad.org>
v 2169.000000 -5029.000000 0.000000
v 4269.000000 -5029.000000 0.000000
v 4269.000000 -6629.000000 0.000000
v 2169.000000 -6629.000000 0.000000
v 6949.000000 4029.000000 0.000000
v 6949.000000 -5029.000000 0.000000
v 3930.409180 4029.000000 0.000000
v 2049.000000 5029.000000 0.000000
v 3930.409180 5053.608887 0.000000
v 2049.000000 5053.608887 0.000000
v -6949.000000 -2729.000000 0.000000
v -6949.000000 -5029.000000 0.000000
v -1049.000000 4029.000000 0.000000
v -1049.000000 5029.000000 0.000000
v -6949.000000 -629.000000 0.000000
v -8149.000000 -629.000000 0.000000
v -8149.000000 -2729.000000 0.000000
v -6949.000000 4029.000000 0.000000
v 2049.000000 5029.000000 167.500000
v 2049.000000 5053.608887 167.500000
v 3930.409180 5053.608887 167.500000
v 3930.409180 4797.456543 167.500000
v 3930.409180 4541.304688 335.000000
v 3930.409180 4797.456543 335.000000
v 3930.409180 4285.152344 502.500000
v 3930.409180 4541.304688 502.500000
v 3930.409180 4029.000000 670.000000
v 3930.409180 4285.152344 670.000000
v 6949.000000 -5029.000000 670.000000
v 4269.000000 -5029.000000 670.000000
v 4269.000000 -6229.000000 167.500000
v 4269.000000 -6629.000000 167.500000
v 4269.000000 -5829.000000 335.000000
v 4269.000000 -6229.000000 335.000000
v 4269.000000 -5429.000000 502.500000
v 4269.000000 -5829.000000 502.500000
v 4269.000000 -5429.000000 670.000000
v 2169.000000 -6629.000000 167.500000
v 2169.000000 -5429.000000 502.500000
v 2169.000000 -5029.000000 670.000000
v 2169.000000 -5429.000000 670.000000
v 2169.000000 -5829.000000 335.000000
v 2169.000000 -5829.000000 502.500000
v 2169.000000 -6229.000000 167.500000
v 2169.000000 -6229.000000 335.000000
v -6949.000000 -5029.000000 670.000000
v -6949.000000 -2729.000000 670.000000
v -7849.000000 -2729.000000 167.500000
v -8149.000000 -2729.000000 167.500000
v -7549.000000 -2729.000000 335.000000
v -7849.000000 -2729.000000 335.000000
v -7249.000000 -2729.000000 502.500000
v -7549.000000 -2729.000000 502.500000
v -7249.000000 -2729.000000 670.000000
v -8149.000000 -629.000000 167.500000
v -7249.000000 -629.000000 502.500000
v -6949.000000 -629.000000 670.000000
v -7549.000000 -629.000000 335.000000
v -7249.000000 -629.000000 670.000000
v -7849.000000 -629.000000 167.500000
v -7549.000000 -629.000000 502.500000
v -7849.000000 -629.000000 335.000000
v 2049.000000 4797.456543 167.500000
v 2049.000000 4285.152344 502.500000
v 2049.000000 4285.152344 670.000000
v 2049.000000 4541.304688 502.500000
v 2049.000000 4541.304688 335.000000
v 2049.000000 4797.456543 335.000000
v -1049.000000 4029.000000 670.000000
v -6949.000000 4029.000000 670.000000
v 6949.000000 4029.000000 670.000000
v -1049.000000 5029.000000 670.000000
v -2959.000000 -4639.000000 670.000000
v -6559.000000 -139.000000 670.000000
v -2959.000000 -139.000000 670.000000
v 2049.000000 -3039.000000 670.000000
v 1659.000000 -4639.000000 670.000000
v 2049.000000 -589.000000 670.000000
v 1659.000000 -469.000000 670.000000
v -1049.000000 3639.000000 670.000000
v -1049.000000 1339.000000 670.000000
v -659.000000 1339.000000 670.000000
v -6559.000000 3639.000000 670.000000
v 6559.000000 -3039.000000 670.000000
v -659.000000 4639.000000 670.000000
v 3859.000000 1381.000000 670.000000
v 3579.000000 -469.000000 670.000000
v 3859.000000 -469.000000 670.000000
v 3579.000000 1381.000000 670.000000
v 2049.000000 3639.000000 670.000000
v 1659.000000 1381.000000 670.000000
v 2049.000000 1661.000000 670.000000
v 6559.000000 -589.000000 670.000000
v 6559.000000 -469.000000 670.000000
v 1659.000000 4639.000000 670.000000
v 2049.000000 5029.000000 670.000000
v 6559.000000 1661.000000 670.000000
v 6559.000000 1381.000000 670.000000
v 6559.000000 3639.000000 670.000000
v -6559.000000 -139.000000 690.000000
v -2959.000000 -139.000000 690.000000
v -2959.000000 -4639.000000 690.000000
v 1659.000000 -4639.000000 690.000000
v 1659.000000 -469.000000 690.000000
v 3579.000000 -469.000000 690.000000
v 3579.000000 1381.000000 690.000000
v 1659.000000 1381.000000 690.000000
v 1659.000000 4639.000000 690.000000
v -659.000000 4639.000000 690.000000
v -659.000000 1339.000000 690.000000
v -1049.000000 1339.000000 690.000000
v -1049.000000 3639.000000 690.000000
v -6559.000000 3639.000000 690.000000
v 6559.000000 -3039.000000 690.000000
v 2049.000000 -3039.000000 690.000000
v 6559.000000 -589.000000 690.000000
v 2049.000000 -589.000000 690.000000
v 6559.000000 1661.000000 690.000000
v 2049.000000 1661.000000 690.000000
v 6559.000000 3639.000000 690.000000
v 2049.000000 3639.000000 690.000000
v 6559.000000 -469.000000 690.000000
v 3859.000000 -469.000000 690.000000
v 6559.000000 1381.000000 690.000000
v 3859.000000 1381.000000 690.000000
vn 0.000000 0.000000 -1.000000
vn 0.000000 0.000000 -1.000000
vn 0.000000 -0.000000 -1.000000
vn 0.000000 0.000000 -1.000000
vn 0.000000 -0.000000 -1.000000
vn 0.000000 0.000000 -1.000000
vn 0.000000 0.000000 -1.000000
vn 0.000000 0.000000 -1.000000
vn 0.000000 0.000000 -1.000000
vn 0.000000 0.000000 -1.000000
vn 0.000000 0.000000 -1.000000
vn 0.000000 0.000000 -1.000000
vn 0.000000 0.000000 -1.000000
vn 0.000000 0.000000 -1.000000
vn 0.000000 0.000000 -1.000000
vn 0.000000 0.000000 -1.000000
vn -1.000000 0.000000 0.000000
vn -1.000000 0.000000 0.000000
vn 0.000000 1.000000 0.000000
vn 0.000000 1.000000 0.000000
vn 1.000000 -0.000000 0.000000
vn 1.000000 -0.000000 0.000000
vn 1.000000 0.000000 0.000000
vn 1.000000 0.000000 0.000000
vn 1.000000 -0.000000 0.000000
vn 1.000000 0.000000 0.000000
vn 1.000000 -0.000000 0.000000
vn 1.000000 0.000000 0.000000
vn 0.000000 -1.000000 0.000000
vn 0.000000 -1.000000 0.000000
vn 1.000000 0.000000 0.000000
vn 1.000000 0.000000 0.000000
vn 1.000000 0.000000 0.000000
vn 1.000000 0.000000 0.000000
vn 1.000000 0.000000 0.000000
vn 1.000000 0.000000 0.000000
vn 1.000000 0.000000 0.000000
vn 1.000000 0.000000 0.000000
vn -0.000000 -1.000000 0.000000
vn 0.000000 -1.000000 -0.000000
vn -1.000000 0.000000 0.000000
vn -1.000000 0.000000 0.000000
vn -1.000000 0.000000 0.000000
vn -1.000000 0.000000 0.000000
vn -1.000000 0.000000 0.000000
vn -1.000000 0.000000 0.000000
vn -1.000000 0.000000 0.000000
vn -1.000000 0.000000 0.000000
vn -1.000000 0.000000 0.000000
vn -1.000000 0.000000 0.000000
vn -0.000000 -1.000000 0.000000
vn -0.000000 -1.000000 0.000000
vn 0.000000 -1.000000 0.000000
vn 0.000000 -1.000000 0.000000
vn -0.000000 -1.000000 0.000000
vn 0.000000 -1.000000 -0.000000
vn -0.000000 -1.000000 0.000000
vn 0.000000 -1.000000 -0.000000
vn -1.000000 0.000000 0.000000
vn -1.000000 0.000000 0.000000
vn -0.000000 1.000000 0.000000
vn -0.000000 1.000000 0.000000
vn -0.000000 1.000000 0.000000
vn -0.000000 1.000000 0.000000
vn -0.000000 1.000000 0.000000
vn 0.000000 1.000000 0.000000
vn -0.000000 1.000000 0.000000
vn -0.000000 1.000000 0.000000
vn 0.000000 0.000000 1.000000
vn 0.000000 0.000000 1.000000
vn 0.000000 -0.000000 1.000000
vn 0.000000 1.000000 0.000000
vn 0.000000 1.000000 0.000000
vn 0.000000 0.000000 1.000000
vn 0.000000 -0.000000 1.000000
vn 0.000000 1.000000 0.000000
vn 0.000000 1.000000 0.000000
vn 0.000000 -0.000000 1.000000
vn 0.000000 0.000000 1.000000
vn 0.000000 1.000000 0.000000
vn 0.000000 1.000000 0.000000
vn 0.000000 -0.000000 1.000000
vn 0.000000 0.000000 1.000000
vn 0.000000 -1.000000 0.000000
vn 0.000000 -1.000000 0.000000
vn 0.000000 -0.000000 1.000000
vn 0.000000 0.000000 1.000000
vn 0.000000 -1.000000 0.000000
vn 0.000000 -1.000000 0.000000
vn 0.000000 -0.000000 1.000000
vn 0.000000 0.000000 1.000000
vn 0.000000 -1.000000 0.000000
vn 0.000000 -1.000000 0.000000
vn -0.000000 0.000000 1.000000
vn 0.000000 0.000000 1.000000
vn -1.000000 0.000000 0.000000
vn -1.000000 0.000000 0.000000
vn -0.000000 0.000000 1.000000
vn 0.000000 0.000000 1.000000
vn -1.000000 0.000000 0.000000
vn -1.000000 0.000000 0.000000
vn -0.000000 0.000000 1.000000
vn 0.000000 0.000000 1.000000
vn -1.000000 0.000000 0.000000
vn -1.000000 0.000000 0.000000
vn 0.000000 1.000000 0.000000
vn 0.000000 1.000000 0.000000
vn 0.000000 1.000000 0.000000
vn 0.000000 1.000000 0.000000
vn -1.000000 0.000000 0.000000
vn -1.000000 0.000000 0.000000
vn -1.000000 0.000000 0.000000
vn -1.000000 0.000000 0.000000
vn 0.000000 0.000000 1.000000
vn 0.000000 0.000000 1.000000
vn 0.000000 0.000000 1.000000
vn 0.000000 0.000000 1.000000
vn 0.000000 0.000000 1.000000
vn 0.000000 0.000000 1.000000
vn 0.000000 0.000000 1.000000
vn 0.000000 0.000000 1.000000
vn 0.000000 0.000000 1.000000
vn 0.000000 0.000000 1.000000
vn 0.000000 0.000000 1.000000
vn 0.000000 0.000000 1.000000
vn 0.000000 0.000000 1.000000
vn 0.000000 0.000000 1.000000
vn 0.000000 0.000000 1.000000
vn 0.000000 0.000000 1.000000
vn 0.000000 0.000000 1.000000
vn 0.000000 0.000000 1.000000
vn 0.000000 0.000000 1.000000
vn 0.000000 0.000000 1.000000
vn 0.000000 0.000000 1.000000
vn 0.000000 0.000000 1.000000
vn 0.000000 0.000000 1.000000
vn 0.000000 0.000000 1.000000
vn 0.000000 0.000000 1.000000
vn 0.000000 0.000000 1.000000
vn 0.000000 0.000000 1.000000
vn 0.000000 0.000000 1.000000
vn 0.000000 0.000000 1.000000
vn 0.000000 0.000000 1.000000
vn 0.000000 0.000000 1.000000
vn 0.000000 0.000000 1.000000
vn 0.000000 0.000000 1.000000
vn 0.000000 0.000000 1.000000
vn 0.000000 0.000000 1.000000
vn 0.000000 0.000000 1.000000
vn -0.000000 0.000000 1.000000
vn 0.000000 -0.000000 1.000000
vn 0.000000 0.000000 1.000000
vn 0.000000 0.000000 1.000000
vn 0.000000 -0.000000 1.000000
vn 0.000000 0.000000 1.000000
vn 0.000000 0.000000 1.000000
vn 0.000000 0.000000 1.000000
vn -0.000000 0.000000 1.000000
vn 0.000000 0.000000 1.000000
vn 0.000000 0.000000 1.000000
vn 0.000000 0.000000 1.000000
vn 0.000000 0.000000 1.000000
vn 0.000000 0.000000 1.000000
vn 0.000000 -1.000000 0.000000
vn 0.000000 -1.000000 0.000000
vn -1.000000 0.000000 0.000000
vn -1.000000 0.000000 0.000000
vn 0.000000 -1.000000 0.000000
vn 0.000000 -1.000000 0.000000
vn 1.000000 0.000000 0.000000
vn 1.000000 0.000000 0.000000
vn 0.000000 -1.000000 0.000000
vn 0.000000 -1.000000 0.000000
vn 1.000000 0.000000 0.000000
vn 1.000000 0.000000 0.000000
vn 0.000000 1.000000 0.000000
vn 0.000000 1.000000 -0.000000
vn 1.000000 0.000000 0.000000
vn 1.000000 0.000000 0.000000
vn 0.000000 1.000000 0.000000
vn 0.000000 1.000000 -0.000000
vn -1.000000 0.000000 0.000000
vn -1.000000 0.000000 0.000000
vn 0.000000 1.000000 0.000000
vn 0.000000 1.000000 -0.000000
vn 1.000000 -0.000000 0.000000
vn 1.000000 0.000000 0.000000
vn 0.000000 1.000000 0.000000
vn 0.000000 1.000000 -0.000000
vn -1.000000 -0.000000 0.000000
vn -1.000000 0.000000 0.000000
vn 0.000000 0.000000 1.000000
vn 0.000000 0.000000 1.000000
vn 0.000000 0.000000 1.000000
vn 0.000000 0.000000 1.000000
vn 0.000000 0.000000 1.000000
vn 0.000000 0.000000 1.000000
vn 0.000000 0.000000 1.000000
vn 0.000000 0.000000 1.000000
vn 0.000000 0.000000 1.000000
vn 0.000000 0.000000 1.000000
vn 0.000000 0.000000 1.000000
vn -0.000000 0.000000 1.000000
vn 0.000000 -1.000000 0.000000
vn 0.000000 -1.000000 0.000000
vn 1.000000 -0.000000 0.000000
vn 1.000000 0.000000 0.000000
vn 0.000000 1.000000 0.000000
vn 0.000000 1.000000 -0.000000
vn -1.000000 0.000000 0.000000
vn -1.000000 0.000000 0.000000
vn 0.000000 0.000000 1.000000
vn 0.000000 0.000000 1.000000
vn 0.000000 -1.000000 0.000000
vn 0.000000 -1.000000 0.000000
vn 1.000000 0.000000 0.000000
vn 1.000000 0.000000 0.000000
vn 0.000000 1.000000 0.000000
vn 0.000000 1.000000 -0.000000
vn -1.000000 0.000000 0.000000
vn -1.000000 0.000000 0.000000
vn 0.000000 0.000000 1.000000
vn 0.000000 0.000000 1.000000
vn 0.000000 -1.000000 0.000000
vn 0.000000 -1.000000 0.000000
vn 1.000000 0.000000 0.000000
vn 1.000000 0.000000 0.000000
vn 0.000000 1.000000 0.000000
vn 0.000000 1.000000 -0.000000
vn -1.000000 -0.000000 0.000000
vn -1.000000 0.000000 0.000000
vn 0.000000 0.000000 1.000000
vn 0.000000 0.000000 1.000000
vn 0.000000 1.000000 0.000000
vn 0.000000 1.000000 0.000000
vn 0.000000 1.000000 0.000000
vn 1.000000 0.000000 0.000000
vn 1.000000 0.000000 0.000000
vn 1.000000 0.000000 0.000000
vn 1.000000 -0.000000 0.000000
vn 1.000000 0.000000 0.000000
vn 1.000000 -0.000000 0.000000
vn 1.000000 0.000000 0.000000
vn 1.000000 -0.000000 0.000000
vn 0.000000 -1.000000 0.000000
vn 0.000000 -1.000000 0.000000
f 1//1 2//1 3//1
f 1//2 3//2 4//2
f 5//3 6//3 2//3
f 7//4 5//4 2//4
f 7//5 2//5 1//5
f 8//6 9//6 7//6
f 10//7 9//7 8//7
f 11//8 1//8 12//8
f 13//9 7//9 1//9
f 13//10 8//10 7//10
f 14//11 8//11 13//11
f 15//12 1//12 11//12
f 15//13 13//13 1//13
f 16//14 11//14 17//14
f 16//15 15//15 11//15
f 18//16 13//16 15//16
f 10//17 19//17 20//17
f 8//18 19//18 10//18
f 21//19 9//19 10//19
f 21//20 10//20 20//20
f 22//21 9//21 21//21
f 23//22 22//22 24//22
f 7//23 9//23 22//23
f 7//24 22//24 23//24
f 25//25 23//25 26//25
f 25//26 7//26 23//26
f 27//27 25//27 28//27
f 27//28 7//28 25//28
f 6//29 29//29 30//29
f 6//30 30//30 2//30
f 31//31 32//31 3//31
f 33//32 34//32 31//32
f 2//33 31//33 3//33
f 2//34 33//34 31//34
f 35//35 36//35 33//35
f 35//36 33//36 2//36
f 30//37 37//37 35//37
f 30//38 35//38 2//38
f 32//39 38//39 4//39
f 32//40 4//40 3//40
f 39//41 40//41 1//41
f 41//42 40//42 39//42
f 42//43 39//43 1//43
f 43//44 39//44 42//44
f 44//45 42//45 1//45
f 45//46 42//46 44//46
f 4//47 44//47 1//47
f 38//48 44//48 4//48
f 12//49 46//49 47//49
f 12//50 47//50 11//50
f 48//51 49//51 17//51
f 50//52 51//52 48//52
f 11//53 48//53 17//53
f 11//54 50//54 48//54
f 52//55 53//55 50//55
f 52//56 50//56 11//56
f 47//57 54//57 52//57
f 47//58 52//58 11//58
f 49//59 55//59 16//59
f 49//60 16//60 17//60
f 56//61 57//61 15//61
f 58//62 56//62 15//62
f 59//63 57//63 56//63
f 60//64 58//64 15//64
f 61//65 56//65 58//65
f 16//66 60//66 15//66
f 62//67 58//67 60//67
f 55//68 60//68 16//68
f 21//69 20//69 19//69
f 22//70 19//70 63//70
f 22//71 21//71 19//71
f 28//72 25//72 64//72
f 28//73 64//73 65//73
f 26//74 66//74 64//74
f 25//75 26//75 64//75
f 26//76 23//76 67//76
f 26//77 67//77 66//77
f 23//78 24//78 68//78
f 23//79 68//79 67//79
f 24//80 22//80 63//80
f 24//81 63//81 68//81
f 32//82 31//82 38//82
f 38//83 31//83 44//83
f 31//84 34//84 44//84
f 44//85 34//85 45//85
f 34//86 33//86 45//86
f 45//87 33//87 42//87
f 33//88 36//88 42//88
f 42//89 36//89 43//89
f 36//90 35//90 43//90
f 43//91 35//91 39//91
f 35//92 37//92 39//92
f 39//93 37//93 41//93
f 55//94 49//94 60//94
f 49//95 48//95 60//95
f 48//96 51//96 60//96
f 60//97 51//97 62//97
f 62//98 51//98 58//98
f 51//99 50//99 58//99
f 50//100 53//100 58//100
f 58//101 53//101 61//101
f 61//102 53//102 56//102
f 53//103 52//103 56//103
f 52//104 54//104 56//104
f 56//105 54//105 59//105
f 69//106 13//106 18//106
f 69//107 18//107 70//107
f 5//108 7//108 27//108
f 71//109 5//109 27//109
f 69//110 72//110 14//110
f 13//111 69//111 14//111
f 15//112 57//112 70//112
f 15//113 70//113 18//113
f 59//114 54//114 47//114
f 73//115 47//115 46//115
f 57//116 59//116 47//116
f 74//117 57//117 47//117
f 75//118 47//118 73//118
f 75//119 74//119 47//119
f 76//120 77//120 40//120
f 30//121 40//121 41//121
f 30//122 41//122 37//122
f 30//123 76//123 40//123
f 78//124 79//124 76//124
f 80//125 81//125 82//125
f 69//126 83//126 80//126
f 84//127 30//127 29//127
f 84//128 76//128 30//128
f 85//129 72//129 69//129
f 85//130 69//130 80//130
f 86//131 87//131 88//131
f 86//132 89//132 87//132
f 90//133 91//133 92//133
f 93//134 84//134 29//134
f 94//135 88//135 93//135
f 65//136 95//136 90//136
f 96//137 72//137 85//137
f 96//138 85//138 95//138
f 96//139 95//139 65//139
f 27//140 65//140 90//140
f 28//141 65//141 27//141
f 97//142 86//142 98//142
f 71//143 99//143 97//143
f 71//144 97//144 98//144
f 71//145 98//145 94//145
f 69//146 70//146 83//146
f 70//147 57//147 74//147
f 70//148 74//148 83//148
f 46//149 40//149 73//149
f 73//150 40//150 77//150
f 29//151 71//151 94//151
f 29//152 94//152 93//152
f 71//153 27//153 99//153
f 82//154 85//154 80//154
f 95//155 91//155 90//155
f 91//156 89//156 92//156
f 87//157 79//157 78//157
f 87//158 78//158 88//158
f 88//159 78//159 93//159
f 79//160 77//160 76//160
f 97//161 92//161 89//161
f 97//162 89//162 86//162
f 90//163 99//163 27//163
f 100//164 75//164 101//164
f 74//165 75//165 100//165
f 75//166 73//166 102//166
f 75//167 102//167 101//167
f 73//168 77//168 103//168
f 73//169 103//169 102//169
f 77//170 79//170 104//170
f 77//171 104//171 103//171
f 79//172 87//172 105//172
f 79//173 105//173 104//173
f 87//174 89//174 106//174
f 87//175 106//175 105//175
f 89//176 91//176 107//176
f 89//177 107//177 106//177
f 91//178 95//178 108//178
f 91//179 108//179 107//179
f 108//180 85//180 109//180
f 95//181 85//181 108//181
f 85//182 82//182 110//182
f 85//183 110//183 109//183
f 82//184 81//184 111//184
f 82//185 111//185 110//185
f 111//186 80//186 112//186
f 81//187 80//187 111//187
f 80//188 83//188 113//188
f 80//189 113//189 112//189
f 113//190 74//190 100//190
f 83//191 74//191 113//191
f 113//192 100//192 101//192
f 110//193 111//193 101//193
f 104//194 101//194 102//194
f 104//195 102//195 103//195
f 104//196 110//196 101//196
f 112//197 113//197 101//197
f 112//198 101//198 111//198
f 107//199 110//199 104//199
f 106//200 104//200 105//200
f 106//201 107//201 104//201
f 109//202 110//202 107//202
f 109//203 107//203 108//203
f 76//204 84//204 114//204
f 76//205 114//205 115//205
f 114//206 93//206 116//206
f 84//207 93//207 114//207
f 93//208 78//208 117//208
f 93//209 117//209 116//209
f 78//210 76//210 115//210
f 78//211 115//211 117//211
f 116//212 115//212 114//212
f 116//213 117//213 115//213
f 92//214 97//214 118//214
f 92//215 118//215 119//215
f 97//216 99//216 120//216
f 97//217 120//217 118//217
f 99//218 90//218 121//218
f 99//219 121//219 120//219
f 90//220 92//220 119//220
f 90//221 119//221 121//221
f 118//222 121//222 119//222
f 120//223 121//223 118//223
f 88//224 94//224 122//224
f 88//225 122//225 123//225
f 94//226 98//226 124//226
f 94//227 124//227 122//227
f 98//228 86//228 125//228
f 98//229 125//229 124//229
f 125//230 88//230 123//230
f 86//231 88//231 125//231
f 122//232 125//232 123//232
f 124//233 125//233 122//233
f 19//234 8//234 14//234
f 19//235 14//235 72//235
f 96//236 19//236 72//236
f 68//237 63//237 19//237
f 96//238 68//238 19//238
f 66//239 67//239 68//239
f 66//240 68//240 96//240
f 65//241 64//241 66//241
f 65//242 66//242 96//242
f 29//243 6//243 5//243
f 29//244 5//244 71//244
f 1//245 40//245 46//245
f 1//246 46//246 12//246
