# Created by FreeCAD <https://www.freecad.org>
v 1659.000000 1539.000000 839.444458
v 1659.000000 1739.000000 864.444458
v 1659.000000 1539.000000 864.444458
v 1659.000000 1739.000000 1038.888916
v 1659.000000 1759.000000 1013.888916
v 1659.000000 1939.000000 1038.888916
v 1659.000000 1939.000000 1213.333374
v 1659.000000 1959.000000 1188.333374
v 1659.000000 1759.000000 839.444458
v 1659.000000 2139.000000 1213.333374
v 1659.000000 2139.000000 1387.777832
v 1659.000000 2159.000000 1362.777832
v 1659.000000 1959.000000 1013.888916
v 1659.000000 2339.000000 1387.777832
v 1659.000000 2339.000000 1562.222168
v 1659.000000 2359.000000 1537.222168
v 1659.000000 2159.000000 1188.333374
v 1659.000000 2539.000000 1562.222168
v 1659.000000 2539.000000 1736.666626
v 1659.000000 2559.000000 1711.666626
v 1659.000000 2359.000000 1362.777832
v 1659.000000 2739.000000 1736.666626
v 1659.000000 2739.000000 1911.111084
v 1659.000000 2759.000000 1886.111084
v 1659.000000 2559.000000 1537.222168
v 1659.000000 2939.000000 1911.111084
v 1659.000000 2939.000000 2085.555664
v 1659.000000 2959.000000 2060.555664
v 1659.000000 2759.000000 1711.666626
v 1659.000000 3139.000000 2085.555664
v 1659.000000 3139.000000 2260.000000
v 1659.000000 3159.000000 2235.000000
v 1659.000000 2959.000000 1886.111084
v 1659.000000 3159.000000 2060.555664
v 1659.000000 4639.000000 2260.000000
v 1659.000000 4639.000000 2235.000000
v 525.000000 1539.000000 839.444458
v 525.000000 1759.000000 839.444458
v 525.000000 1759.000000 1013.888916
v 525.000000 1959.000000 1013.888916
v 525.000000 1959.000000 1188.333374
v 525.000000 2159.000000 1188.333374
v 525.000000 2159.000000 1362.777832
v 525.000000 2359.000000 1362.777832
v 525.000000 2359.000000 1537.222168
v 525.000000 2559.000000 1537.222168
v 525.000000 2559.000000 1711.666626
v 525.000000 2759.000000 1711.666626
v 525.000000 2759.000000 1886.111084
v 525.000000 2959.000000 1886.111084
v 525.000000 2959.000000 2060.555664
v 525.000000 3159.000000 2060.555664
v 525.000000 3159.000000 2235.000000
v -659.000000 4639.000000 2235.000000
v -659.000000 4639.000000 2260.000000
v 525.000000 3139.000000 2085.555664
v 525.000000 2939.000000 2085.555664
v 525.000000 2939.000000 1911.111084
v 525.000000 2739.000000 1911.111084
v 525.000000 2739.000000 1736.666626
v 525.000000 2539.000000 1736.666626
v 525.000000 2539.000000 1562.222168
v 525.000000 2339.000000 1562.222168
v 525.000000 2339.000000 1387.777832
v 525.000000 2139.000000 1387.777832
v 525.000000 2139.000000 1213.333374
v 525.000000 1939.000000 1213.333374
v 525.000000 1939.000000 1038.888916
v 525.000000 1739.000000 1038.888916
v 525.000000 1739.000000 864.444458
v 525.000000 1539.000000 864.444458
v 525.000000 3139.000000 2235.000000
v -659.000000 3139.000000 2235.000000
v -659.000000 3164.000000 2260.000000
v 475.000000 3164.000000 2260.000000
v 475.000000 3139.000000 2260.000000
v 475.000000 3164.000000 2458.888916
v -659.000000 3164.000000 2458.888916
v 475.000000 3139.000000 2433.888916
v 475.000000 2944.250000 2458.888916
v 475.000000 2944.250000 2657.777832
v 475.000000 2919.250000 2632.777832
v 475.000000 2724.500000 2657.777832
v 475.000000 2724.500000 2856.666748
v 475.000000 2699.500000 2831.666748
v 475.000000 2504.750000 2856.666748
v 475.000000 2504.750000 3055.555664
v 475.000000 2479.750000 3030.555664
v 475.000000 2919.250000 2433.888916
v 475.000000 2285.000000 3055.555664
v 475.000000 2285.000000 3254.444336
v 475.000000 2260.000000 3229.444336
v 475.000000 2699.500000 2632.777832
v 475.000000 2065.250000 3254.444336
v 475.000000 2065.250000 3453.333252
v 475.000000 2040.250000 3428.333252
v 475.000000 2479.750000 2831.666748
v 475.000000 1845.500000 3453.333252
v 475.000000 1845.500000 3652.222168
v 475.000000 1820.500000 3627.222168
v 475.000000 2260.000000 3030.555664
v 475.000000 1625.750000 3652.222168
v 475.000000 1625.750000 3851.111084
v 475.000000 1600.750000 3826.111084
v 475.000000 2040.250000 3229.444336
v 475.000000 1406.000000 3851.111084
v 475.000000 1406.000000 4050.000000
v 475.000000 1381.000000 4050.000000
v 475.000000 1820.500000 3428.333252
v 475.000000 1600.750000 3627.222168
v 475.000000 1381.000000 3826.111084
v -659.000000 2944.250000 2458.888916
v -659.000000 2919.250000 2433.888916
v -659.000000 3139.000000 2433.888916
v -659.000000 2944.250000 2657.777832
v -659.000000 2724.500000 2657.777832
v -659.000000 2724.500000 2856.666748
v -659.000000 2504.750000 2856.666748
v -659.000000 2504.750000 3055.555664
v -659.000000 2285.000000 3055.555664
v -659.000000 2285.000000 3254.444336
v -659.000000 2065.250000 3254.444336
v -659.000000 2065.250000 3453.333252
v -659.000000 1845.500000 3453.333252
v -659.000000 1845.500000 3652.222168
v -659.000000 1625.750000 3652.222168
v -659.000000 1625.750000 3851.111084
v -659.000000 1406.000000 3851.111084
v -659.000000 1406.000000 4050.000000
v -659.000000 1381.000000 4050.000000
v -659.000000 1381.000000 3826.111084
v -659.000000 1600.750000 3826.111084
v -659.000000 1600.750000 3627.222168
v -659.000000 1820.500000 3627.222168
v -659.000000 1820.500000 3428.333252
v -659.000000 2040.250000 3428.333252
v -659.000000 2040.250000 3229.444336
v -659.000000 2260.000000 3229.444336
v -659.000000 2260.000000 3030.555664
v -659.000000 2479.750000 3030.555664
v -659.000000 2479.750000 2831.666748
v -659.000000 2699.500000 2831.666748
v -659.000000 2699.500000 2632.777832
v -659.000000 2919.250000 2632.777832
vn 1.000000 0.000000 0.000000
vn 1.000000 0.000000 0.000000
vn 1.000000 0.000000 -0.000000
vn 1.000000 0.000000 0.000000
vn 1.000000 -0.000000 0.000000
vn 1.000000 0.000000 0.000000
vn 1.000000 0.000000 -0.000000
vn 1.000000 0.000000 0.000000
vn 1.000000 0.000000 0.000000
vn 1.000000 -0.000000 0.000000
vn 1.000000 0.000000 -0.000000
vn 1.000000 0.000000 0.000000
vn 1.000000 -0.000000 0.000000
vn 1.000000 0.000000 0.000000
vn 1.000000 0.000000 -0.000000
vn 1.000000 0.000000 0.000000
vn 1.000000 0.000000 0.000000
vn 1.000000 -0.000000 0.000000
vn 1.000000 0.000000 -0.000000
vn 1.000000 0.000000 0.000000
vn 1.000000 0.000000 0.000000
vn 1.000000 -0.000000 0.000000
vn 1.000000 0.000000 -0.000000
vn 1.000000 0.000000 0.000000
vn 1.000000 -0.000000 0.000000
vn 1.000000 0.000000 0.000000
vn 1.000000 0.000000 -0.000000
vn 1.000000 0.000000 0.000000
vn 1.000000 -0.000000 0.000000
vn 1.000000 0.000000 0.000000
vn 1.000000 -0.000000 0.000000
vn 1.000000 0.000000 0.000000
vn 1.000000 0.000000 -0.000000
vn 1.000000 0.000000 0.000000
vn 0.000000 0.000000 -1.000000
vn 0.000000 0.000000 -1.000000
vn 0.000000 1.000000 0.000000
vn 0.000000 1.000000 -0.000000
vn 0.000000 0.000000 -1.000000
vn 0.000000 0.000000 -1.000000
vn 0.000000 1.000000 0.000000
vn 0.000000 1.000000 -0.000000
vn 0.000000 0.000000 -1.000000
vn 0.000000 0.000000 -1.000000
vn 0.000000 1.000000 0.000000
vn 0.000000 1.000000 -0.000000
vn 0.000000 0.000000 -1.000000
vn 0.000000 0.000000 -1.000000
vn 0.000000 1.000000 0.000000
vn 0.000000 1.000000 -0.000000
vn 0.000000 0.000000 -1.000000
vn 0.000000 0.000000 -1.000000
vn 0.000000 1.000000 0.000000
vn 0.000000 1.000000 -0.000000
vn 0.000000 0.000000 -1.000000
vn 0.000000 0.000000 -1.000000
vn 0.000000 1.000000 0.000000
vn 0.000000 1.000000 -0.000000
vn 0.000000 0.000000 -1.000000
vn 0.000000 0.000000 -1.000000
vn 0.000000 1.000000 0.000000
vn 0.000000 1.000000 -0.000000
vn 0.000000 0.000000 -1.000000
vn 0.000000 0.000000 -1.000000
vn 0.000000 1.000000 0.000000
vn 0.000000 1.000000 -0.000000
vn 0.000000 1.000000 0.000000
vn 0.000000 1.000000 0.000000
vn 0.000000 0.000000 1.000000
vn -0.000000 0.000000 1.000000
vn 0.000000 -1.000000 0.000000
vn 0.000000 -1.000000 0.000000
vn 0.000000 0.000000 1.000000
vn -0.000000 0.000000 1.000000
vn 0.000000 -1.000000 0.000000
vn 0.000000 -1.000000 0.000000
vn 0.000000 0.000000 1.000000
vn -0.000000 0.000000 1.000000
vn 0.000000 -1.000000 0.000000
vn 0.000000 -1.000000 0.000000
vn 0.000000 0.000000 1.000000
vn -0.000000 0.000000 1.000000
vn 0.000000 -1.000000 0.000000
vn 0.000000 -1.000000 0.000000
vn 0.000000 0.000000 1.000000
vn -0.000000 0.000000 1.000000
vn 0.000000 -1.000000 0.000000
vn 0.000000 -1.000000 0.000000
vn 0.000000 0.000000 1.000000
vn -0.000000 0.000000 1.000000
vn 0.000000 -1.000000 0.000000
vn 0.000000 -1.000000 0.000000
vn 0.000000 0.000000 1.000000
vn -0.000000 0.000000 1.000000
vn 0.000000 -1.000000 0.000000
vn 0.000000 -1.000000 0.000000
vn 0.000000 0.000000 1.000000
vn -0.000000 0.000000 1.000000
vn 0.000000 -1.000000 0.000000
vn 0.000000 -1.000000 0.000000
vn -1.000000 -0.000000 0.000000
vn -1.000000 0.000000 -0.000000
vn -1.000000 -0.000000 0.000000
vn -1.000000 0.000000 0.000000
vn -1.000000 -0.000000 0.000000
vn -1.000000 0.000000 -0.000000
vn -1.000000 -0.000000 0.000000
vn -1.000000 0.000000 0.000000
vn -1.000000 -0.000000 0.000000
vn -1.000000 0.000000 -0.000000
vn -1.000000 -0.000000 0.000000
vn -1.000000 0.000000 0.000000
vn -1.000000 -0.000000 0.000000
vn -1.000000 0.000000 -0.000000
vn -1.000000 -0.000000 0.000000
vn -1.000000 0.000000 0.000000
vn -1.000000 -0.000000 0.000000
vn -1.000000 0.000000 -0.000000
vn -1.000000 -0.000000 0.000000
vn -1.000000 0.000000 0.000000
vn -1.000000 -0.000000 0.000000
vn -1.000000 0.000000 -0.000000
vn -1.000000 -0.000000 0.000000
vn -1.000000 0.000000 0.000000
vn -1.000000 -0.000000 0.000000
vn -1.000000 0.000000 -0.000000
vn -1.000000 -0.000000 0.000000
vn -1.000000 0.000000 0.000000
vn -1.000000 -0.000000 0.000000
vn -1.000000 0.000000 -0.000000
vn -1.000000 0.000000 0.000000
vn -1.000000 -0.000000 0.000000
vn 0.000000 -0.000000 -1.000000
vn 0.000000 0.000000 -1.000000
vn 0.000000 0.000000 -1.000000
vn 0.000000 0.000000 -1.000000
vn 0.000000 0.000000 1.000000
vn 0.000000 0.000000 1.000000
vn 0.000000 0.000000 1.000000
vn 0.000000 0.000000 1.000000
vn 0.000000 1.000000 -0.000000
vn 0.000000 1.000000 0.000000
vn 1.000000 0.000000 -0.000000
vn 1.000000 -0.000000 0.000000
vn 1.000000 0.000000 -0.000000
vn 1.000000 0.000000 0.000000
vn 1.000000 -0.000000 0.000000
vn 1.000000 0.000000 -0.000000
vn 1.000000 -0.000000 0.000000
vn 1.000000 0.000000 -0.000000
vn 1.000000 0.000000 0.000000
vn 1.000000 0.000000 0.000000
vn 1.000000 -0.000000 0.000000
vn 1.000000 0.000000 -0.000000
vn 1.000000 0.000000 0.000000
vn 1.000000 0.000000 0.000000
vn 1.000000 0.000000 -0.000000
vn 1.000000 -0.000000 0.000000
vn 1.000000 0.000000 0.000000
vn 1.000000 0.000000 0.000000
vn 1.000000 -0.000000 0.000000
vn 1.000000 0.000000 -0.000000
vn 1.000000 0.000000 0.000000
vn 1.000000 0.000000 0.000000
vn 1.000000 -0.000000 0.000000
vn 1.000000 0.000000 -0.000000
vn 1.000000 0.000000 0.000000
vn 1.000000 0.000000 0.000000
vn 1.000000 0.000000 -0.000000
vn 1.000000 -0.000000 0.000000
vn 1.000000 0.000000 0.000000
vn 1.000000 0.000000 0.000000
vn 1.000000 0.000000 0.000000
vn 1.000000 0.000000 0.000000
vn 1.000000 0.000000 0.000000
vn 1.000000 0.000000 0.000000
vn -0.000000 0.000000 1.000000
vn 0.000000 0.000000 1.000000
vn 0.000000 0.000000 -1.000000
vn 0.000000 0.000000 -1.000000
vn 0.000000 1.000000 0.000000
vn 0.000000 1.000000 -0.000000
vn -0.000000 0.000000 1.000000
vn 0.000000 0.000000 1.000000
vn 0.000000 1.000000 -0.000000
vn 0.000000 1.000000 0.000000
vn -0.000000 0.000000 1.000000
vn 0.000000 0.000000 1.000000
vn 0.000000 1.000000 0.000000
vn 0.000000 1.000000 -0.000000
vn -0.000000 0.000000 1.000000
vn 0.000000 0.000000 1.000000
vn 0.000000 1.000000 -0.000000
vn 0.000000 1.000000 0.000000
vn -0.000000 0.000000 1.000000
vn 0.000000 0.000000 1.000000
vn 0.000000 1.000000 0.000000
vn 0.000000 1.000000 -0.000000
vn -0.000000 0.000000 1.000000
vn 0.000000 0.000000 1.000000
vn 0.000000 1.000000 -0.000000
vn 0.000000 1.000000 0.000000
vn -0.000000 0.000000 1.000000
vn 0.000000 0.000000 1.000000
vn 0.000000 1.000000 0.000000
vn 0.000000 1.000000 -0.000000
vn -0.000000 0.000000 1.000000
vn 0.000000 0.000000 1.000000
vn 0.000000 1.000000 -0.000000
vn 0.000000 1.000000 0.000000
vn -0.000000 0.000000 1.000000
vn 0.000000 0.000000 1.000000
vn 0.000000 -1.000000 0.000000
vn 0.000000 -1.000000 -0.000000
vn 0.000000 0.000000 -1.000000
vn 0.000000 0.000000 -1.000000
vn 0.000000 -1.000000 0.000000
vn 0.000000 -1.000000 -0.000000
vn 0.000000 0.000000 -1.000000
vn 0.000000 0.000000 -1.000000
vn -0.000000 -1.000000 -0.000000
vn 0.000000 -1.000000 0.000000
vn 0.000000 0.000000 -1.000000
vn 0.000000 0.000000 -1.000000
vn -0.000000 -1.000000 -0.000000
vn 0.000000 -1.000000 0.000000
vn 0.000000 0.000000 -1.000000
vn 0.000000 0.000000 -1.000000
vn 0.000000 -1.000000 0.000000
vn 0.000000 -1.000000 -0.000000
vn 0.000000 0.000000 -1.000000
vn 0.000000 0.000000 -1.000000
vn -0.000000 -1.000000 -0.000000
vn 0.000000 -1.000000 0.000000
vn 0.000000 0.000000 -1.000000
vn 0.000000 0.000000 -1.000000
vn 0.000000 -1.000000 0.000000
vn 0.000000 -1.000000 -0.000000
vn 0.000000 0.000000 -1.000000
vn 0.000000 0.000000 -1.000000
vn -0.000000 -1.000000 -0.000000
vn 0.000000 -1.000000 0.000000
vn 0.000000 -1.000000 0.000000
vn -0.000000 -1.000000 0.000000
vn 0.000000 -1.000000 0.000000
vn 0.000000 -1.000000 0.000000
vn 0.000000 -1.000000 0.000000
vn -0.000000 -1.000000 0.000000
vn -1.000000 0.000000 0.000000
vn -1.000000 0.000000 0.000000
vn -1.000000 0.000000 0.000000
vn -1.000000 0.000000 0.000000
vn -1.000000 0.000000 0.000000
vn -1.000000 0.000000 0.000000
vn -1.000000 0.000000 0.000000
vn -1.000000 0.000000 0.000000
vn -1.000000 0.000000 0.000000
vn -1.000000 0.000000 0.000000
vn -1.000000 0.000000 0.000000
vn -1.000000 0.000000 0.000000
vn -1.000000 0.000000 0.000000
vn -1.000000 0.000000 0.000000
vn -1.000000 0.000000 0.000000
vn -1.000000 0.000000 0.000000
vn -1.000000 0.000000 0.000000
vn -1.000000 0.000000 0.000000
vn -1.000000 0.000000 0.000000
vn -1.000000 0.000000 0.000000
vn -1.000000 0.000000 0.000000
vn -1.000000 0.000000 0.000000
vn -1.000000 0.000000 0.000000
vn -1.000000 0.000000 0.000000
vn -1.000000 0.000000 0.000000
vn -1.000000 0.000000 0.000000
vn -1.000000 0.000000 0.000000
vn -1.000000 0.000000 0.000000
vn -1.000000 0.000000 0.000000
vn -1.000000 0.000000 0.000000
vn -1.000000 0.000000 0.000000
vn -1.000000 0.000000 0.000000
vn -1.000000 0.000000 0.000000
vn -1.000000 0.000000 0.000000
vn -1.000000 0.000000 0.000000
vn -1.000000 0.000000 0.000000
f 1//1 2//1 3//1
f 4//2 2//2 5//2
f 5//3 6//3 4//3
f 7//4 6//4 8//4
f 2//5 9//5 5//5
f 1//6 9//6 2//6
f 8//7 10//7 7//7
f 11//8 10//8 12//8
f 5//9 13//9 6//9
f 6//10 13//10 8//10
f 12//11 14//11 11//11
f 15//12 14//12 16//12
f 10//13 17//13 12//13
f 8//14 17//14 10//14
f 16//15 18//15 15//15
f 19//16 18//16 20//16
f 12//17 21//17 14//17
f 14//18 21//18 16//18
f 20//19 22//19 19//19
f 23//20 22//20 24//20
f 16//21 25//21 18//21
f 18//22 25//22 20//22
f 24//23 26//23 23//23
f 27//24 26//24 28//24
f 22//25 29//25 24//25
f 20//26 29//26 22//26
f 28//27 30//27 27//27
f 31//28 30//28 32//28
f 26//29 33//29 28//29
f 24//30 33//30 26//30
f 30//31 34//31 32//31
f 28//32 34//32 30//32
f 32//33 35//33 31//33
f 32//34 36//34 35//34
f 1//35 37//35 9//35
f 37//36 38//36 9//36
f 38//37 39//37 9//37
f 9//38 39//38 5//38
f 39//39 40//39 5//39
f 5//40 40//40 13//40
f 40//41 41//41 13//41
f 13//42 41//42 8//42
f 41//43 42//43 8//43
f 8//44 42//44 17//44
f 42//45 43//45 17//45
f 17//46 43//46 12//46
f 43//47 44//47 12//47
f 12//48 44//48 21//48
f 44//49 45//49 21//49
f 21//50 45//50 16//50
f 45//51 46//51 16//51
f 16//52 46//52 25//52
f 46//53 47//53 25//53
f 25//54 47//54 20//54
f 47//55 48//55 20//55
f 20//56 48//56 29//56
f 48//57 49//57 29//57
f 29//58 49//58 24//58
f 49//59 50//59 24//59
f 24//60 50//60 33//60
f 50//61 51//61 33//61
f 33//62 51//62 28//62
f 51//63 52//63 28//63
f 28//64 52//64 34//64
f 52//65 53//65 34//65
f 34//66 53//66 32//66
f 36//67 54//67 55//67
f 35//68 36//68 55//68
f 56//69 57//69 27//69
f 56//70 27//70 30//70
f 57//71 58//71 26//71
f 57//72 26//72 27//72
f 58//73 59//73 23//73
f 58//74 23//74 26//74
f 59//75 60//75 22//75
f 59//76 22//76 23//76
f 60//77 61//77 19//77
f 60//78 19//78 22//78
f 61//79 62//79 18//79
f 61//80 18//80 19//80
f 62//81 63//81 15//81
f 62//82 15//82 18//82
f 63//83 64//83 14//83
f 63//84 14//84 15//84
f 64//85 65//85 11//85
f 64//86 11//86 14//86
f 65//87 66//87 10//87
f 65//88 10//88 11//88
f 66//89 67//89 7//89
f 66//90 7//90 10//90
f 67//91 68//91 6//91
f 67//92 6//92 7//92
f 68//93 69//93 4//93
f 68//94 4//94 6//94
f 69//95 70//95 2//95
f 69//96 2//96 4//96
f 70//97 71//97 3//97
f 70//98 3//98 2//98
f 37//99 1//99 71//99
f 71//100 1//100 3//100
f 53//101 56//101 72//101
f 53//102 52//102 56//102
f 56//103 51//103 57//103
f 52//104 51//104 56//104
f 51//105 58//105 57//105
f 51//106 50//106 58//106
f 58//107 49//107 59//107
f 50//108 49//108 58//108
f 49//109 60//109 59//109
f 49//110 48//110 60//110
f 60//111 47//111 61//111
f 48//112 47//112 60//112
f 47//113 62//113 61//113
f 47//114 46//114 62//114
f 62//115 45//115 63//115
f 46//116 45//116 62//116
f 45//117 64//117 63//117
f 45//118 44//118 64//118
f 64//119 43//119 65//119
f 44//120 43//120 64//120
f 43//121 66//121 65//121
f 43//122 42//122 66//122
f 66//123 41//123 67//123
f 42//124 41//124 66//124
f 41//125 68//125 67//125
f 41//126 40//126 68//126
f 68//127 39//127 69//127
f 40//128 39//128 68//128
f 39//129 70//129 69//129
f 39//130 38//130 70//130
f 38//131 37//131 70//131
f 70//132 37//132 71//132
f 36//133 32//133 53//133
f 73//134 53//134 72//134
f 54//135 36//135 53//135
f 54//136 53//136 73//136
f 55//137 74//137 75//137
f 31//138 75//138 76//138
f 35//139 55//139 75//139
f 35//140 75//140 31//140
f 75//141 74//141 77//141
f 74//142 78//142 77//142
f 75//143 77//143 79//143
f 80//144 79//144 77//144
f 80//145 81//145 82//145
f 76//146 75//146 79//146
f 83//147 82//147 81//147
f 83//148 84//148 85//148
f 86//149 85//149 84//149
f 86//150 87//150 88//150
f 89//151 79//151 80//151
f 89//152 80//152 82//152
f 90//153 88//153 87//153
f 90//154 91//154 92//154
f 93//155 83//155 85//155
f 93//156 82//156 83//156
f 94//157 95//157 96//157
f 94//158 92//158 91//158
f 97//159 85//159 86//159
f 97//160 86//160 88//160
f 98//161 96//161 95//161
f 98//162 99//162 100//162
f 101//163 88//163 90//163
f 101//164 90//164 92//164
f 102//165 100//165 99//165
f 102//166 103//166 104//166
f 105//167 92//167 94//167
f 105//168 94//168 96//168
f 106//169 107//169 108//169
f 106//170 104//170 103//170
f 109//171 98//171 100//171
f 109//172 96//172 98//172
f 110//173 102//173 104//173
f 110//174 100//174 102//174
f 111//175 104//175 106//175
f 111//176 106//176 108//176
f 78//177 112//177 77//177
f 77//178 112//178 80//178
f 113//179 114//179 89//179
f 89//180 114//180 79//180
f 112//181 115//181 80//181
f 80//182 115//182 81//182
f 115//183 116//183 81//183
f 81//184 116//184 83//184
f 83//185 116//185 84//185
f 116//186 117//186 84//186
f 117//187 118//187 84//187
f 84//188 118//188 86//188
f 118//189 119//189 86//189
f 86//190 119//190 87//190
f 119//191 120//191 87//191
f 87//192 120//192 90//192
f 90//193 120//193 91//193
f 120//194 121//194 91//194
f 121//195 122//195 91//195
f 91//196 122//196 94//196
f 122//197 123//197 94//197
f 94//198 123//198 95//198
f 123//199 124//199 95//199
f 95//200 124//200 98//200
f 98//201 124//201 99//201
f 124//202 125//202 99//202
f 125//203 126//203 99//203
f 99//204 126//204 102//204
f 126//205 127//205 102//205
f 102//206 127//206 103//206
f 127//207 128//207 103//207
f 103//208 128//208 106//208
f 106//209 128//209 107//209
f 128//210 129//210 107//210
f 129//211 130//211 107//211
f 107//212 130//212 108//212
f 130//213 131//213 108//213
f 108//214 131//214 111//214
f 111//215 131//215 104//215
f 131//216 132//216 104//216
f 132//217 133//217 104//217
f 104//218 133//218 110//218
f 133//219 134//219 110//219
f 110//220 134//220 100//220
f 100//221 134//221 109//221
f 134//222 135//222 109//222
f 135//223 136//223 109//223
f 109//224 136//224 96//224
f 96//225 136//225 105//225
f 136//226 137//226 105//226
f 137//227 138//227 105//227
f 105//228 138//228 92//228
f 138//229 139//229 92//229
f 92//230 139//230 101//230
f 139//231 140//231 101//231
f 101//232 140//232 88//232
f 88//233 140//233 97//233
f 140//234 141//234 97//234
f 141//235 142//235 97//235
f 97//236 142//236 85//236
f 142//237 143//237 85//237
f 85//238 143//238 93//238
f 143//239 144//239 93//239
f 93//240 144//240 82//240
f 82//241 144//241 89//241
f 144//242 113//242 89//242
f 76//243 79//243 114//243
f 76//244 114//244 73//244
f 30//245 72//245 56//245
f 30//246 31//246 72//246
f 73//247 72//247 76//247
f 31//248 76//248 72//248
f 74//249 55//249 54//249
f 74//250 114//250 78//250
f 112//251 78//251 114//251
f 112//252 144//252 115//252
f 116//253 115//253 144//253
f 116//254 142//254 117//254
f 73//255 114//255 74//255
f 73//256 74//256 54//256
f 118//257 117//257 142//257
f 118//258 140//258 119//258
f 113//259 144//259 112//259
f 113//260 112//260 114//260
f 120//261 119//261 140//261
f 120//262 138//262 121//262
f 143//263 142//263 116//263
f 143//264 116//264 144//264
f 122//265 121//265 138//265
f 122//266 136//266 123//266
f 141//267 140//267 118//267
f 141//268 118//268 142//268
f 124//269 123//269 136//269
f 124//270 134//270 125//270
f 139//271 138//271 120//271
f 139//272 120//272 140//272
f 126//273 125//273 134//273
f 126//274 132//274 127//274
f 137//275 122//275 138//275
f 137//276 136//276 122//276
f 128//277 130//277 129//277
f 128//278 127//278 132//278
f 135//279 134//279 124//279
f 135//280 124//280 136//280
f 133//281 132//281 126//281
f 133//282 126//282 134//282
f 131//283 130//283 128//283
f 131//284 128//284 132//284
