# Created by FreeCAD <https://www.freecad.org>
v -3349.000000 -5029.000000 670.000000
v -3349.000000 -5029.000000 4050.000000
v -3609.000000 -5029.000000 3320.000000
v -3609.000000 -5029.000000 700.000000
v -6609.000000 -5029.000000 3320.000000
v -6949.000000 -5029.000000 4050.000000
v -6949.000000 -5029.000000 670.000000
v -6609.000000 -5029.000000 700.000000
v -6849.000000 -4929.000000 670.000000
v -3349.000000 -4929.000000 670.000000
v -6849.000000 -629.000000 670.000000
v -3349.000000 -529.000000 670.000000
v -3349.000000 -629.000000 670.000000
v -6949.000000 -529.000000 670.000000
v -3349.000000 -4929.000000 4050.000000
v -6949.000000 -2479.000000 3320.000000
v -6949.000000 -529.000000 4050.000000
v -6949.000000 -729.000000 3320.000000
v -6949.000000 -2829.000000 3320.000000
v -6949.000000 -729.000000 700.000000
v -6949.000000 -4579.000000 3320.000000
v -6949.000000 -2829.000000 700.000000
v -6949.000000 -2479.000000 700.000000
v -6949.000000 -4579.000000 700.000000
v -6609.000000 -4929.000000 3320.000000
v -6609.000000 -4929.000000 700.000000
v -3609.000000 -4929.000000 700.000000
v -3609.000000 -4929.000000 3320.000000
v -3349.000000 -529.000000 4050.000000
v -3349.000000 -629.000000 4050.000000
v -6849.000000 -629.000000 4050.000000
v -6849.000000 -2479.000000 3320.000000
v -6849.000000 -729.000000 3320.000000
v -6849.000000 -2829.000000 3320.000000
v -6849.000000 -729.000000 700.000000
v -6849.000000 -4929.000000 4050.000000
v -6849.000000 -4579.000000 3320.000000
v -6849.000000 -2829.000000 700.000000
v -6849.000000 -2479.000000 700.000000
v -6849.000000 -4579.000000 700.000000
vn 0.000000 -1.000000 0.000000
vn 0.000000 -1.000000 0.000000
vn 0.000000 -1.000000 0.000000
vn 0.000000 -1.000000 0.000000
vn 0.000000 -1.000000 0.000000
vn 0.000000 -1.000000 0.000000
vn 0.000000 -1.000000 0.000000
vn 0.000000 -1.000000 0.000000
vn 0.000000 -0.000000 -1.000000
vn 0.000000 0.000000 -1.000000
vn 0.000000 0.000000 -1.000000
vn 0.000000 0.000000 -1.000000
vn 0.000000 0.000000 -1.000000
vn 0.000000 0.000000 -1.000000
vn 1.000000 0.000000 0.000000
vn 1.000000 0.000000 0.000000
vn -1.000000 0.000000 0.000000
vn -1.000000 0.000000 0.000000
vn -1.000000 0.000000 0.000000
vn -1.000000 0.000000 0.000000
vn -1.000000 0.000000 0.000000
vn -1.000000 0.000000 0.000000
vn -1.000000 0.000000 0.000000
vn -1.000000 0.000000 0.000000
vn -1.000000 0.000000 0.000000
vn -1.000000 0.000000 0.000000
vn -1.000000 0.000000 0.000000
vn -1.000000 0.000000 0.000000
vn -1.000000 0.000000 0.000000
vn -1.000000 0.000000 0.000000
vn 1.000000 -0.000000 0.000000
vn 1.000000 0.000000 0.000000
vn 0.000000 0.000000 1.000000
vn -0.000000 0.000000 1.000000
vn -1.000000 0.000000 0.000000
vn -1.000000 0.000000 0.000000
vn 0.000000 0.000000 -1.000000
vn -0.000000 0.000000 -1.000000
vn 0.000000 1.000000 0.000000
vn 0.000000 1.000000 0.000000
vn 1.000000 0.000000 0.000000
vn 1.000000 -0.000000 0.000000
vn 0.000000 -1.000000 0.000000
vn 0.000000 -1.000000 0.000000
vn 1.000000 0.000000 0.000000
vn 1.000000 0.000000 0.000000
vn 1.000000 -0.000000 0.000000
vn 1.000000 -0.000000 0.000000
vn 1.000000 0.000000 -0.000000
vn 1.000000 0.000000 0.000000
vn 1.000000 0.000000 0.000000
vn 1.000000 0.000000 0.000000
vn 1.000000 0.000000 0.000000
vn 1.000000 0.000000 0.000000
vn 1.000000 0.000000 0.000000
vn 1.000000 0.000000 0.000000
vn 1.000000 0.000000 0.000000
vn 1.000000 0.000000 -0.000000
vn 0.000000 1.000000 0.000000
vn 0.000000 1.000000 -0.000000
vn 0.000000 1.000000 -0.000000
vn 0.000000 1.000000 0.000000
vn 0.000000 1.000000 0.000000
vn 0.000000 1.000000 -0.000000
vn 0.000000 1.000000 0.000000
vn 0.000000 1.000000 0.000000
vn 0.000000 -1.000000 0.000000
vn 0.000000 -1.000000 -0.000000
vn -0.000000 0.000000 1.000000
vn 0.000000 0.000000 1.000000
vn 0.000000 1.000000 0.000000
vn 0.000000 1.000000 -0.000000
vn 0.000000 0.000000 -1.000000
vn 0.000000 0.000000 -1.000000
vn 0.000000 -1.000000 0.000000
vn 0.000000 -1.000000 -0.000000
vn -0.000000 0.000000 1.000000
vn 0.000000 0.000000 1.000000
vn 0.000000 1.000000 0.000000
vn 0.000000 1.000000 -0.000000
vn 0.000000 0.000000 -1.000000
vn 0.000000 0.000000 -1.000000
vn 0.000000 0.000000 1.000000
vn 0.000000 0.000000 1.000000
vn 0.000000 0.000000 1.000000
vn 0.000000 0.000000 1.000000
vn 0.000000 0.000000 1.000000
vn 0.000000 0.000000 1.000000
f 1//1 2//1 3//1
f 4//2 1//2 3//2
f 5//3 2//3 6//3
f 5//4 3//4 2//4
f 7//5 8//5 5//5
f 7//6 5//6 6//6
f 7//7 1//7 4//7
f 7//8 4//8 8//8
f 9//9 1//9 7//9
f 9//10 10//10 1//10
f 11//11 12//11 13//11
f 14//12 11//12 9//12
f 14//13 12//13 11//13
f 14//14 9//14 7//14
f 1//15 10//15 15//15
f 1//16 15//16 2//16
f 16//17 17//17 18//17
f 19//18 17//18 16//18
f 14//19 18//19 17//19
f 20//20 18//20 14//20
f 6//21 17//21 19//21
f 21//22 6//22 19//22
f 22//23 16//23 23//23
f 22//24 19//24 16//24
f 7//25 21//25 24//25
f 7//26 6//26 21//26
f 14//27 7//27 24//27
f 14//28 24//28 22//28
f 14//29 22//29 23//29
f 14//30 23//30 20//30
f 5//31 8//31 25//31
f 25//32 8//32 26//32
f 8//33 4//33 26//33
f 26//34 4//34 27//34
f 4//35 3//35 27//35
f 27//36 3//36 28//36
f 3//37 5//37 28//37
f 28//38 5//38 25//38
f 12//39 14//39 17//39
f 29//40 12//40 17//40
f 30//41 13//41 12//41
f 30//42 12//42 29//42
f 13//43 30//43 31//43
f 13//44 31//44 11//44
f 32//45 33//45 31//45
f 34//46 32//46 31//46
f 35//47 11//47 33//47
f 36//48 34//48 31//48
f 37//49 34//49 36//49
f 38//50 39//50 32//50
f 38//51 32//51 34//51
f 9//52 40//52 37//52
f 9//53 37//53 36//53
f 9//54 11//54 35//54
f 9//55 35//55 39//55
f 9//56 39//56 38//56
f 9//57 38//57 40//57
f 11//58 31//58 33//58
f 9//59 36//59 25//59
f 26//60 9//60 25//60
f 28//61 36//61 15//61
f 28//62 25//62 36//62
f 10//63 27//63 28//63
f 10//64 28//64 15//64
f 10//65 9//65 26//65
f 10//66 26//66 27//66
f 18//67 20//67 33//67
f 33//68 20//68 35//68
f 20//69 23//69 35//69
f 35//70 23//70 39//70
f 23//71 16//71 39//71
f 39//72 16//72 32//72
f 16//73 18//73 32//73
f 32//74 18//74 33//74
f 19//75 22//75 34//75
f 34//76 22//76 38//76
f 22//77 24//77 38//77
f 38//78 24//78 40//78
f 24//79 21//79 40//79
f 40//80 21//80 37//80
f 21//81 19//81 37//81
f 37//82 19//82 34//82
f 2//83 36//83 6//83
f 15//84 36//84 2//84
f 31//85 17//85 6//85
f 31//86 6//86 36//86
f 29//87 31//87 30//87
f 29//88 17//88 31//88
