# Created by FreeCAD <https://www.freecad.org>
v 4269.000000 -12000.000000 0.000000
v 4269.000000 -7829.000000 5.000000
v 4269.000000 -12000.000000 5.000000
v 4269.000000 -7829.000000 0.000000
v 2169.000000 -12000.000000 -0.000000
v 7449.000000 -6629.000000 0.000000
v 8649.000000 -7829.000000 0.000000
v 2169.000000 -6629.000000 0.000000
v 8649.000000 6753.608887 0.000000
v 7449.000000 5553.608887 0.000000
v 3930.409180 5553.608887 0.000000
v -8149.000000 -5529.000000 0.000000
v -2831.000000 -5529.000000 0.000000
v -2831.000000 -6729.000000 0.000000
v -9349.000000 -6729.000000 0.000000
v 2049.000000 5053.608887 0.000000
v 3930.409180 5053.608887 0.000000
v 2049.000000 5553.608887 0.000000
v -8149.000000 5553.608887 0.000000
v -9349.000000 6753.608887 0.000000
v 8649.000000 -7829.000000 5.000000
v -2831.000000 -6729.000000 5.000000
v -8149.000000 -5529.000000 5.000000
v -9349.000000 -6729.000000 5.000000
v -2831.000000 -5529.000000 5.000000
v 2169.000000 -12000.000000 5.000000
v 2169.000000 -6629.000000 5.000000
v -9349.000000 6753.608887 5.000000
v -8149.000000 5553.608887 5.000000
v 7449.000000 -6629.000000 5.000000
v 2049.000000 5553.608887 5.000000
v 3930.409180 5553.608887 5.000000
v 2049.000000 5053.608887 5.000000
v 3930.409180 5053.608887 5.000000
v 7449.000000 5553.608887 5.000000
v 8649.000000 6753.608887 5.000000
v -2831.000000 -5029.000000 -0.000000
v 2169.000000 -5029.000000 -0.000000
v 2169.000000 -12000.000000 -0.000000
v -2831.000000 -12000.000000 0.000000
v -2831.000000 -5029.000000 5.000000
v 2169.000000 -5029.000000 5.000000
v 2169.000000 -12000.000000 5.000000
v -2831.000000 -12000.000000 5.000000
vn 1.000000 0.000000 0.000000
vn 1.000000 0.000000 0.000000
vn 0.000000 0.000000 -1.000000
vn 0.000000 0.000000 -1.000000
vn 0.000000 0.000000 -1.000000
vn 0.000000 0.000000 -1.000000
vn 0.000000 -0.000000 -1.000000
vn 0.000000 0.000000 -1.000000
vn 0.000000 0.000000 -1.000000
vn 0.000000 0.000000 -1.000000
vn 0.000000 0.000000 -1.000000
vn 0.000000 0.000000 -1.000000
vn 0.000000 0.000000 -1.000000
vn 0.000000 -0.000000 -1.000000
vn 0.000000 0.000000 -1.000000
vn 0.000000 0.000000 -1.000000
vn 0.000000 0.000000 -1.000000
vn 0.000000 0.000000 -1.000000
vn -0.000000 -1.000000 0.000000
vn 0.000000 -1.000000 -0.000000
vn 0.000000 0.000000 1.000000
vn 0.000000 0.000000 1.000000
vn 0.000000 0.000000 1.000000
vn 0.000000 0.000000 1.000000
vn 0.000000 0.000000 1.000000
vn 0.000000 0.000000 1.000000
vn 0.000000 0.000000 1.000000
vn 0.000000 0.000000 1.000000
vn 0.000000 0.000000 1.000000
vn 0.000000 0.000000 1.000000
vn 0.000000 0.000000 1.000000
vn 0.000000 0.000000 1.000000
vn 0.000000 0.000000 1.000000
vn 0.000000 0.000000 1.000000
vn 0.000000 0.000000 1.000000
vn 0.000000 0.000000 1.000000
vn 0.000000 -1.000000 0.000000
vn 0.000000 -1.000000 0.000000
vn 1.000000 0.000000 0.000000
vn 1.000000 0.000000 0.000000
vn -0.000000 1.000000 0.000000
vn 0.000000 1.000000 0.000000
vn -1.000000 0.000000 0.000000
vn -1.000000 0.000000 0.000000
vn -0.000000 -1.000000 0.000000
vn 0.000000 -1.000000 -0.000000
vn 1.000000 0.000000 0.000000
vn 1.000000 0.000000 0.000000
vn -0.000000 1.000000 0.000000
vn 0.000000 1.000000 0.000000
vn 1.000000 0.000000 0.000000
vn 1.000000 0.000000 0.000000
vn -0.000000 -1.000000 0.000000
vn 0.000000 -1.000000 -0.000000
vn -1.000000 0.000000 0.000000
vn -1.000000 0.000000 0.000000
vn -0.000000 -1.000000 0.000000
vn 0.000000 -1.000000 -0.000000
vn 1.000000 0.000000 0.000000
vn 1.000000 0.000000 0.000000
vn -0.000000 -1.000000 0.000000
vn 0.000000 -1.000000 -0.000000
vn -1.000000 0.000000 0.000000
vn -1.000000 0.000000 0.000000
vn 0.000000 1.000000 0.000000
vn 0.000000 1.000000 0.000000
vn -1.000000 0.000000 0.000000
vn -1.000000 0.000000 0.000000
vn -0.000000 0.000000 -1.000000
vn -0.000000 -0.000000 -1.000000
vn 0.000000 1.000000 -0.000000
vn 0.000000 1.000000 0.000000
vn 0.000000 -1.000000 0.000000
vn 0.000000 -1.000000 0.000000
vn 0.000000 0.000000 1.000000
vn 0.000000 0.000000 1.000000
vn 1.000000 0.000000 0.000000
vn 1.000000 -0.000000 0.000000
vn -1.000000 0.000000 0.000000
vn -1.000000 0.000000 0.000000
g Kiesweg
f 1//1 2//1 3//1
f 1//2 4//2 2//2
f 4//3 1//3 5//3
f 4//4 6//4 7//4
f 8//5 4//5 5//5
f 8//6 6//6 4//6
f 9//7 7//7 6//7
f 10//8 9//8 6//8
f 11//9 9//9 10//9
f 12//10 13//10 14//10
f 15//11 12//11 14//11
f 16//12 11//12 17//12
f 18//13 11//13 16//13
f 19//14 12//14 15//14
f 20//15 18//15 19//15
f 20//16 19//16 15//16
f 20//17 9//17 11//17
f 20//18 11//18 18//18
f 21//19 2//19 4//19
f 21//20 4//20 7//20
f 22//21 23//21 24//21
f 25//22 23//22 22//22
f 2//23 26//23 3//23
f 2//24 27//24 26//24
f 28//25 23//25 29//25
f 28//26 24//26 23//26
f 30//27 2//27 21//27
f 30//28 27//28 2//28
f 31//29 28//29 29//29
f 32//30 31//30 33//30
f 32//31 33//31 34//31
f 35//32 30//32 21//32
f 36//33 32//33 35//33
f 36//34 35//34 21//34
f 36//35 28//35 31//35
f 36//36 31//36 32//36
f 5//37 3//37 26//37
f 5//38 1//38 3//38
f 36//39 21//39 7//39
f 36//40 7//40 9//40
f 28//41 36//41 9//41
f 28//42 9//42 20//42
f 15//43 28//43 20//43
f 24//44 28//44 15//44
f 22//45 24//45 15//45
f 22//46 15//46 14//46
f 25//47 14//47 13//47
f 25//48 22//48 14//48
f 23//49 25//49 13//49
f 23//50 13//50 12//50
f 19//51 23//51 12//51
f 29//52 23//52 19//52
f 31//53 29//53 19//53
f 31//54 19//54 18//54
f 33//55 31//55 18//55
f 33//56 18//56 16//56
f 34//57 33//57 16//57
f 34//58 16//58 17//58
f 32//59 34//59 17//59
f 32//60 17//60 11//60
f 35//61 32//61 11//61
f 35//62 11//62 10//62
f 30//63 35//63 10//63
f 30//64 10//64 6//64
f 30//65 8//65 27//65
f 30//66 6//66 8//66
f 26//67 27//67 5//67
f 5//68 27//68 8//68
g Parkplatz
f 37//69 38//69 39//69
f 37//70 39//70 40//70
f 38//71 41//71 42//71
f 38//72 37//72 41//72
f 40//73 43//73 44//73
f 40//74 39//74 43//74
f 42//75 44//75 43//75
f 42//76 41//76 44//76
f 39//77 38//77 42//77
f 43//78 39//78 42//78
f 44//79 41//79 37//79
f 40//80 44//80 37//80
