{"scene":0,"asset":{"generator":"ImageToStl.com","version":"2.0"},"scenes":[{"name":"Scene","nodes":[0]}],"nodes":[{"name":"Node0","children":[1]},{"name":"Node1","mesh":0}],"materials":[{"name":"x1","pbrMetallicRoughness":{"baseColorFactor":[0.85,0.85,0.85,1.0],"metallicFactor":0.05,"roughnessFactor":0.5},"doubleSided":true}],"meshes":[{"name":"Mesh0","primitives":[{"indices":2,"material":0,"attributes":{"POSITION":0,"NORMAL":1}}]}],"accessors":[{"bufferView":0,"componentType":5126,"count":1374,"type":"VEC3","min":[-6899.0,-479.0,4065.0],"max":[-5249.0,3979.0,6650.0]},{"bufferView":1,"componentType":5126,"count":1374,"type":"VEC3"},{"bufferView":2,"componentType":5123,"count":3312,"type":"SCALAR"}],"bufferViews":[{"target":34962,"buffer":0,"byteLength":16488,"byteOffset":0},{"target":34962,"buffer":0,"byteLength":16488,"byteOffset":16488},{"target":34963,"buffer":0,"byteLength":6624,"byteOffset":32976}],"buffers":[{"byteLength":39600,"uri":"data:application/octet-stream;base64,"}]}