{"scene":0,"asset":{"generator":"ImageToStl.com","version":"2.0"},"scenes":[{"name":"Scene","nodes":[0]}],"nodes":[{"name":"Node0","children":[1]},{"name":"Node1","mesh":0}],"materials":[{"name":"x1","pbrMetallicRoughness":{"baseColorFactor":[0.85,0.85,0.85,1.0],"metallicFactor":0.05,"roughnessFactor":0.5},"doubleSided":true}],"meshes":[{"name":"Mesh0","primitives":[{"indices":2,"material":0,"attributes":{"POSITION":0,"NORMAL":1}}]}],"accessors":[{"bufferView":0,"componentType":5126,"count":215,"type":"VEC3","min":[-8099.1895,-5877.7827,3979.4324],"max":[7847.701,6180.1094,9551.298]},{"bufferView":1,"componentType":5126,"count":215,"type":"VEC3"},{"bufferView":2,"componentType":5123,"count":330,"type":"SCALAR"}],"bufferViews":[{"target":34962,"buffer":0,"byteLength":2580,"byteOffset":0},{"target":34962,"buffer":0,"byteLength":2580,"byteOffset":2580},{"target":34963,"buffer":0,"byteLength":660,"byteOffset":5160}],"buffers":[{"byteLength":5820,"uri":"data:application/octet-stream;base64,"}]}