{"scene":0,"asset":{"generator":"ImageToStl.com","version":"2.0"},"scenes":[{"name":"Scene","nodes":[0]}],"nodes":[{"name":"Node0","children":[1]},{"name":"Node1","mesh":0}],"materials":[{"name":"x1","pbrMetallicRoughness":{"baseColorFactor":[0.85,0.85,0.85,1.0],"metallicFactor":0.05,"roughnessFactor":0.5},"doubleSided":true}],"meshes":[{"name":"Mesh0","primitives":[{"indices":2,"material":0,"attributes":{"POSITION":0,"NORMAL":1}}]}],"accessors":[{"bufferView":0,"componentType":5126,"count":97898,"type":"VEC3","min":[-8193.478,-5970.7827,-20.333496],"max":[7940.701,6052.3984,6320.0]},{"bufferView":1,"componentType":5126,"count":97898,"type":"VEC3"},{"bufferView":2,"componentType":5125,"count":99378,"type":"SCALAR"}],"bufferViews":[{"target":34962,"buffer":0,"byteLength":1174776,"byteOffset":0},{"target":34962,"buffer":0,"byteLength":1174776,"byteOffset":1174776},{"target":34963,"buffer":0,"byteLength":397512,"byteOffset":2349552}],"buffers":[{"byteLength":2747064,"uri":"data:application/octet-stream;base64,"}]}