{"scene":0,"asset":{"generator":"ImageToStl.com","version":"2.0"},"scenes":[{"name":"Scene","nodes":[0]}],"nodes":[{"name":"Node0","children":[1]},{"name":"Node1","mesh":0}],"materials":[{"name":"x1","pbrMetallicRoughness":{"baseColorFactor":[0.85,0.85,0.85,1.0],"metallicFactor":0.05,"roughnessFactor":0.5},"doubleSided":true}],"meshes":[{"name":"Mesh0","primitives":[{"indices":2,"material":0,"attributes":{"POSITION":0,"NORMAL":1}}]}],"accessors":[{"bufferView":0,"componentType":5126,"count":33186,"type":"VEC3","min":[-4442.7,-5970.7827,-5.0],"max":[-3206.0,-5046.001,6294.4854]},{"bufferView":1,"componentType":5126,"count":33186,"type":"VEC3"},{"bufferView":2,"componentType":5123,"count":33432,"type":"SCALAR"}],"bufferViews":[{"target":34962,"buffer":0,"byteLength":398232,"byteOffset":0},{"target":34962,"buffer":0,"byteLength":398232,"byteOffset":398232},{"target":34963,"buffer":0,"byteLength":66864,"byteOffset":796464}],"buffers":[{"byteLength":863328,"uri":"data:application/octet-stream;base64,"}]}