{"scene":0,"asset":{"generator":"ImageToStl.com","version":"2.0"},"scenes":[{"name":"Scene","nodes":[0]}],"nodes":[{"name":"Node0","children":[1]},{"name":"Node1","mesh":0}],"materials":[{"name":"x1","pbrMetallicRoughness":{"baseColorFactor":[0.85,0.85,0.85,1.0],"metallicFactor":0.05,"roughnessFactor":0.5},"doubleSided":true}],"meshes":[{"name":"Mesh0","primitives":[{"indices":2,"material":0,"attributes":{"POSITION":0,"NORMAL":1}}]}],"accessors":[{"bufferView":0,"componentType":5126,"count":10964,"type":"VEC3","min":[-12020.0,-12020.0,0.0],"max":[12020.0,12020.0,1295.359]},{"bufferView":1,"componentType":5126,"count":10964,"type":"VEC3"},{"bufferView":2,"componentType":5123,"count":21672,"type":"SCALAR"}],"bufferViews":[{"target":34962,"buffer":0,"byteLength":131568,"byteOffset":0},{"target":34962,"buffer":0,"byteLength":131568,"byteOffset":131568},{"target":34963,"buffer":0,"byteLength":43344,"byteOffset":263136}],"buffers":[{"byteLength":306480,"uri":"data:application/octet-stream;base64,"}]}